<svg width="400" height="389" viewBox="0 0 400 389" fill="none" xmlns="http://www.w3.org/2000/svg">
<path d="M264.4 250.799V215.88C264.416 215.311 264.538 214.751 264.76 214.232C264.982 213.713 265.299 213.245 265.694 212.854C266.089 212.464 266.553 212.16 267.06 211.958C267.566 211.757 268.106 211.662 268.648 211.68H273.76L273.096 200.575L281.776 211.68H302.4C302.942 211.662 303.482 211.757 303.989 211.958C304.495 212.16 304.96 212.464 305.354 212.854C305.749 213.245 306.066 213.713 306.288 214.232C306.51 214.751 306.633 215.311 306.648 215.88V250.832C306.633 251.401 306.51 251.961 306.288 252.481C306.066 253 305.749 253.468 305.354 253.858C304.96 254.248 304.495 254.553 303.989 254.754C303.482 254.956 302.942 255.05 302.4 255.032H268.648C268.104 255.05 267.561 254.955 267.052 254.751C266.543 254.547 266.078 254.24 265.683 253.846C265.288 253.452 264.971 252.98 264.751 252.457C264.531 251.934 264.411 251.371 264.4 250.799Z" fill="#263238" stroke="#263238" stroke-linecap="round" stroke-linejoin="round"/>
<path d="M277.432 228.27C277.432 228.27 283.672 227.43 285.04 226.834C286.408 226.237 288.744 224.582 287.96 220.282C287.176 215.981 288.76 216.392 290.304 217.006C291.848 217.619 293.032 220.895 292.84 222.533C292.752 223.902 292.817 225.278 293.032 226.632C293.032 226.632 300.232 227.245 300.832 227.472C301.432 227.699 301.632 229.723 301.632 230.748C301.632 231.773 301.632 233.411 300.832 233.822C300.032 234.234 298.688 234.847 298.688 234.847C298.688 234.847 297.712 240.988 297.52 242.407C297.328 243.827 297.52 245.07 295.96 245.683C294.641 246.158 293.221 246.231 291.864 245.893C290.496 245.683 276.848 244.457 276.848 244.457L277.432 228.27Z" fill="white" stroke="#263238" stroke-linecap="round" stroke-linejoin="round"/>
<path d="M279.576 226.422H268.072V247.514H279.576V226.422Z" fill="#77523D" stroke="#263238" stroke-linecap="round" stroke-linejoin="round"/>
<path d="M322.496 136.382H281.304C280.243 136.382 279.226 136.825 278.476 137.613C277.725 138.4 277.304 139.468 277.304 140.582V147.983L266.72 147.328L277.304 155.845V164.312C277.304 165.426 277.725 166.495 278.476 167.282C279.226 168.07 280.243 168.512 281.304 168.512H322.496C323.557 168.512 324.574 168.07 325.324 167.282C326.075 166.495 326.496 165.426 326.496 164.312V140.549C326.488 139.441 326.062 138.381 325.313 137.601C324.564 136.82 323.551 136.382 322.496 136.382Z" fill="white" stroke="#263238" stroke-linecap="round" stroke-linejoin="round"/>
<path d="M295.072 159.13L293.32 178.164L301.896 170.797L310.288 177.761L307.16 158.105L295.072 159.13Z" fill="#263238" stroke="#263238" stroke-linecap="round" stroke-linejoin="round"/>
<path d="M313.6 147.571C313.6 146.051 314.928 144.32 314.504 142.951C314.08 141.582 312.008 140.952 311.184 139.768C310.36 138.583 310.464 136.34 309.328 135.467C308.192 134.593 306.216 135.4 304.856 134.938C303.496 134.476 302.4 132.611 300.944 132.611C299.488 132.611 298.344 134.492 297.032 134.938C295.72 135.383 293.696 134.602 292.568 135.467C291.44 136.332 291.536 138.566 290.704 139.768C289.872 140.969 287.824 141.523 287.384 142.951C286.944 144.379 288.288 146.051 288.288 147.571C288.288 149.092 286.96 150.822 287.384 152.2C287.808 153.577 289.888 154.199 290.704 155.383C291.52 156.568 291.424 158.81 292.568 159.684C293.712 160.558 295.68 159.751 297.032 160.213C298.384 160.675 299.496 162.54 300.944 162.54C302.392 162.54 303.544 160.658 304.856 160.213C306.168 159.768 308.192 160.549 309.328 159.684C310.464 158.819 310.352 156.584 311.184 155.383C312.016 154.182 314.064 153.628 314.504 152.2C314.944 150.772 313.6 149.1 313.6 147.571Z" fill="#77523D" stroke="#263238" stroke-linecap="round" stroke-linejoin="round"/>
<path d="M302.556 159.182C308.651 158.219 312.848 152.25 311.931 145.85C311.014 139.451 305.329 135.044 299.234 136.007C293.139 136.97 288.942 142.939 289.86 149.339C290.777 155.738 296.462 160.145 302.556 159.182Z" fill="white" stroke="#263238" stroke-linecap="round" stroke-linejoin="round"/>
<path d="M300.296 154.451V143.338L299.888 143.539L299.408 143.758L298.912 143.976L298.48 144.178V142.044L298.984 141.758C299.208 141.641 299.44 141.506 299.696 141.355C299.952 141.204 300.176 141.053 300.4 140.902C300.575 140.781 300.738 140.643 300.888 140.49H303.04V154.451H300.296Z" fill="#263238"/>
<path d="M269.736 41.4372H228.544C227.483 41.4372 226.466 41.8797 225.716 42.6674C224.965 43.455 224.544 44.5233 224.544 45.6372V64.3944C224.544 65.5083 224.965 66.5766 225.716 67.3642C226.466 68.1519 227.483 68.5944 228.544 68.5944H231.12L227.768 77.8344L237.096 68.5944H269.736C270.797 68.5944 271.814 68.1519 272.564 67.3642C273.315 66.5766 273.736 65.5083 273.736 64.3944V45.6036C273.728 44.4955 273.302 43.4359 272.553 42.6554C271.804 41.875 270.791 41.4372 269.736 41.4372Z" fill="white" stroke="#263238" stroke-linecap="round" stroke-linejoin="round"/>
<path d="M240.504 57.0108C241.392 57.0108 242.112 56.2549 242.112 55.3224C242.112 54.3899 241.392 53.634 240.504 53.634C239.616 53.634 238.896 54.3899 238.896 55.3224C238.896 56.2549 239.616 57.0108 240.504 57.0108Z" fill="#263238"/>
<path d="M248.536 57.0108C249.424 57.0108 250.144 56.2549 250.144 55.3224C250.144 54.3899 249.424 53.634 248.536 53.634C247.648 53.634 246.928 54.3899 246.928 55.3224C246.928 56.2549 247.648 57.0108 248.536 57.0108Z" fill="#263238"/>
<path d="M256.568 57.0108C257.456 57.0108 258.176 56.2549 258.176 55.3224C258.176 54.3899 257.456 53.634 256.568 53.634C255.68 53.634 254.96 54.3899 254.96 55.3224C254.96 56.2549 255.68 57.0108 256.568 57.0108Z" fill="#263238"/>
<path d="M167.56 91.2156L159.2 86.2596V76.4988C159.2 75.3849 158.779 74.3166 158.028 73.529C157.278 72.7413 156.261 72.2988 155.2 72.2988H106.4C105.339 72.2988 104.322 72.7413 103.572 73.529C102.821 74.3166 102.4 75.3849 102.4 76.4988V98.1624C102.4 99.2763 102.821 100.345 103.572 101.132C104.322 101.92 105.339 102.362 106.4 102.362H155.2C156.261 102.362 157.278 101.92 158.028 101.132C158.779 100.345 159.2 99.2763 159.2 98.1624V91.98L167.56 91.2156Z" fill="#263238" stroke="#263238" stroke-linecap="round" stroke-linejoin="round"/>
<path d="M111.16 82.7148L112.152 85.9152H115.344L112.76 87.8808L113.744 91.0728L111.16 89.1072L108.576 91.0728L109.56 87.8808L106.976 85.9152H110.176L111.16 82.7148Z" fill="white"/>
<path d="M121.112 82.7148L122.104 85.9152H125.296L122.712 87.8808L123.704 91.0728L121.112 89.1072L118.528 91.0728L119.52 87.8808L116.928 85.9152H120.128L121.112 82.7148Z" fill="white"/>
<path d="M131.072 82.7148L132.056 85.9152H135.256L132.664 87.8808L133.656 91.0728L131.072 89.1072L128.48 91.0728L129.472 87.8808L126.88 85.9152H130.08L131.072 82.7148Z" fill="white"/>
<path d="M141.024 82.7148L142.008 85.9152H145.208L142.624 87.8808L143.608 91.0728L141.024 89.1072L138.432 91.0728L139.424 87.8808L136.84 85.9152H140.032L141.024 82.7148Z" fill="white"/>
<path d="M150.976 82.7148L151.968 85.9152H155.16L152.576 87.8808L153.56 91.0728L150.976 89.1072L148.392 91.0728L149.376 87.8808L146.792 85.9152H149.992L150.976 82.7148Z" fill="white"/>
<path d="M114.4 159.474H101.912V152.519C101.912 151.405 101.491 150.337 100.74 149.549C99.9903 148.761 98.9729 148.319 97.912 148.319H67.144C66.0832 148.319 65.0658 148.761 64.3156 149.549C63.5655 150.337 63.144 151.405 63.144 152.519V171.31C63.144 172.424 63.5655 173.492 64.3156 174.279C65.0658 175.067 66.0832 175.51 67.144 175.51H97.944C99.0049 175.51 100.022 175.067 100.772 174.279C101.523 173.492 101.944 172.424 101.944 171.31V165.32L114.4 159.474Z" fill="white" stroke="#263238" stroke-linecap="round" stroke-linejoin="round"/>
<path d="M90.6721 162.826L89.4561 164.111L81.7761 172.183L74.0801 164.111L72.8641 162.826C71.8456 161.755 71.2739 160.304 71.2747 158.791C71.2754 157.278 71.8486 155.827 72.8681 154.757C73.8876 153.688 75.2699 153.088 76.7109 153.089C78.1519 153.089 79.5336 153.691 80.5521 154.762L81.7761 156.038L82.9841 154.762C84.0025 153.691 85.3842 153.089 86.8252 153.089C88.2663 153.088 89.6486 153.688 90.6681 154.757C91.6876 155.827 92.2607 157.278 92.2615 158.791C92.2622 160.304 91.6905 161.755 90.6721 162.826Z" fill="#77523D" stroke="#263238" stroke-linecap="round" stroke-linejoin="round"/>
<path d="M81.776 206.976H126.528C127.151 206.998 127.764 207.148 128.332 207.419C128.899 207.689 129.411 208.075 129.836 208.553C130.262 209.031 130.594 209.593 130.813 210.206C131.032 210.819 131.133 211.471 131.112 212.125V215.88L143.048 210.68L131.112 225.607V261.904C131.153 263.224 130.693 264.508 129.834 265.473C128.975 266.439 127.786 267.007 126.528 267.053H81.776C80.5183 267.007 79.3293 266.439 78.47 265.473C77.6106 264.508 77.151 263.224 77.192 261.904V212.125C77.1706 211.471 77.2723 210.819 77.4911 210.206C77.71 209.593 78.0418 209.031 78.4675 208.553C78.8933 208.075 79.4046 207.689 79.9723 207.419C80.54 207.148 81.1529 206.998 81.776 206.976Z" fill="white" stroke="#263238" stroke-linecap="round" stroke-linejoin="round"/>
<path d="M100.896 244.238C109.083 244.238 115.72 237.27 115.72 228.673C115.72 220.077 109.083 213.108 100.896 213.108C92.709 213.108 86.072 220.077 86.072 228.673C86.072 237.27 92.709 244.238 100.896 244.238Z" fill="#263238" stroke="#263238" stroke-linecap="round" stroke-linejoin="round"/>
<path d="M100.64 240.4V238.132C100.009 238.146 99.3823 238.017 98.8026 237.755C98.223 237.492 97.7037 237.102 97.28 236.611C96.4299 235.351 96.0048 233.828 96.072 232.285L99.4 231.764C99.4003 232.408 99.4646 233.05 99.592 233.68C99.6627 234.074 99.8405 234.439 100.104 234.73C100.322 234.94 100.608 235.054 100.904 235.049C101.063 235.07 101.224 235.04 101.367 234.964C101.509 234.887 101.627 234.768 101.704 234.62C101.828 234.333 101.891 234.02 101.888 233.705C101.911 233.022 101.735 232.348 101.384 231.773C100.993 231.173 100.527 230.631 100 230.16L98.456 228.766C98.0353 228.37 97.6398 227.947 97.272 227.497C96.9074 227.051 96.618 226.542 96.416 225.994C96.1805 225.339 96.0691 224.643 96.088 223.944C96.0541 223.322 96.1416 222.7 96.3452 222.115C96.5488 221.53 96.8642 220.994 97.272 220.542C98.1407 219.683 99.2789 219.187 100.472 219.148V216.98H101.584V219.122C102.299 219.133 102.998 219.345 103.608 219.736C104.091 220.065 104.485 220.519 104.752 221.054C105.002 221.585 105.177 222.151 105.272 222.734C105.365 223.273 105.418 223.817 105.432 224.364L102.064 224.801C102.064 224.241 102.032 223.762 101.968 223.364C101.94 223.027 101.836 222.702 101.664 222.415C101.578 222.301 101.464 222.212 101.335 222.157C101.206 222.103 101.066 222.085 100.928 222.104C100.765 222.097 100.604 222.138 100.462 222.223C100.321 222.307 100.205 222.432 100.128 222.583C99.9603 222.872 99.8691 223.203 99.864 223.541C99.8332 224.18 100.024 224.81 100.4 225.313C100.755 225.766 101.143 226.19 101.56 226.582L103.04 227.926C103.528 228.394 103.982 228.899 104.4 229.438C104.817 229.973 105.152 230.574 105.392 231.218C105.65 231.94 105.774 232.707 105.76 233.478C105.768 234.247 105.604 235.006 105.28 235.696C104.969 236.358 104.497 236.923 103.912 237.334C103.272 237.765 102.542 238.027 101.784 238.098V240.383L100.64 240.4Z" fill="white"/>
<path d="M127.592 229.085L117.6 232.68L120.352 235.2L106.352 252L97.9201 247.12C97.6475 246.963 97.3375 246.893 97.0278 246.919C96.7181 246.944 96.4222 247.063 96.1761 247.262L82.9441 257.88C82.6067 258.151 82.3856 258.551 82.3293 258.993C82.273 259.435 82.3863 259.882 82.6441 260.236C82.9018 260.59 83.2831 260.823 83.7039 260.882C84.1248 260.941 84.5507 260.822 84.8881 260.551L97.3121 250.572L105.952 255.57C106.271 255.755 106.641 255.821 107.001 255.755C107.36 255.689 107.687 255.497 107.928 255.209L122.784 237.426L125.536 239.946L127.592 229.085Z" fill="#77523D" stroke="#263238" stroke-linecap="round" stroke-linejoin="round"/>
<path d="M169.888 236.502C169.888 236.502 173.368 306.222 175.112 320.351C176.856 334.48 180.336 355.093 180.336 355.093C180.336 355.093 177.848 356.924 177.352 358.756C176.856 360.587 177.6 367.374 177.6 367.374L195.76 368.676C195.76 368.676 196.504 363.98 196.504 353.262V337.302C196.504 335.219 199.496 245.876 199.496 245.876L201.728 337.571C201.728 337.571 200.984 366.038 202.232 366.559C203.46 367.226 204.626 368.013 205.712 368.911L221.632 368.39C222.306 365.301 222.724 362.156 222.88 358.991C222.88 355.328 220.64 348.281 220.888 344.358C221.136 340.435 227.608 308.574 227.608 303.089V217.686H170.4L169.888 236.502Z" fill="#263238" stroke="#263238" stroke-linecap="round" stroke-linejoin="round"/>
<path d="M194.016 367.374C194.016 367.374 187.304 361.368 184.32 361.889C181.336 362.41 178.592 364.241 178.344 365.022C178.096 365.803 176.352 367.374 175.856 368.936C175.36 370.499 167.4 378.344 165.656 380.436C163.912 382.528 162.672 382.788 164.168 384.09C165.094 384.884 166.194 385.424 167.368 385.661H195.76C195.76 385.661 196.76 383.309 196.504 378.605C196.248 373.901 195.76 368.676 195.76 368.676L194.016 367.374Z" fill="white" stroke="#263238" stroke-linecap="round" stroke-linejoin="round"/>
<path d="M163.504 383.04C163.504 383.342 163.68 383.653 164.168 384.082C165.094 384.876 166.194 385.416 167.368 385.652H195.76C196.063 384.811 196.264 383.934 196.36 383.04H163.504Z" fill="white" stroke="#263238" stroke-linecap="round" stroke-linejoin="round"/>
<path d="M205.816 367.374C205.816 367.374 212.144 361.368 214.96 361.889C217.776 362.41 220.352 364.241 220.56 365.022C220.768 365.803 222.432 367.374 222.904 368.936C223.376 370.499 230.904 378.344 232.504 380.436C234.104 382.528 235.32 382.788 233.912 384.09C233.044 384.884 231.993 385.426 230.864 385.661H204.144C204.144 385.661 203.208 383.309 203.44 378.605C203.672 373.901 204.144 368.676 204.144 368.676L205.816 367.374Z" fill="white" stroke="#263238" stroke-linecap="round" stroke-linejoin="round"/>
<path d="M234.568 383.04C234.568 383.342 234.4 383.653 233.944 384.082C233.076 384.876 232.025 385.418 230.896 385.652H204.176C203.891 384.808 203.701 383.931 203.608 383.04H234.568Z" fill="white" stroke="#263238" stroke-linecap="round" stroke-linejoin="round"/>
<path d="M190.856 124.043L183.656 130.46L184.952 219.131H216.064C216.064 219.131 217.544 128.512 216.992 127.151C216.44 125.79 213.104 124.429 213.104 124.429L190.856 124.043Z" fill="white" stroke="#263238" stroke-linecap="round" stroke-linejoin="round"/>
<path d="M243.624 162.674L256 166.27C256 166.27 243.464 142.128 241.184 136.34C239.4 131.821 237.184 130.46 236.264 130.099C231.52 126.882 213.112 124.429 213.112 124.429L211.672 168.706L209.472 242.189H235.656C235.656 242.189 233.448 216.241 232.232 208.018L230.512 196.451C230.512 196.451 232.632 178.811 234.512 161.918L243.624 162.674Z" fill="#77523D" stroke="#263238" stroke-linecap="round" stroke-linejoin="round"/>
<path d="M216 180.13C215.192 182.353 214.173 184.486 212.96 186.497" stroke="#263238" stroke-linecap="round" stroke-linejoin="round"/>
<path d="M216.968 127.151L221.32 137.323L217.744 141.397L223.408 148.596C223.408 148.596 221.2 164.279 217.304 176.425" stroke="#263238" stroke-linecap="round" stroke-linejoin="round"/>
<path d="M188.728 102.539C188.728 102.539 186.4 99.1788 184.728 101.59C183.056 104 189.384 112.325 189.384 112.325L188.728 102.539Z" fill="white" stroke="#263238" stroke-linecap="round" stroke-linejoin="round"/>
<path d="M215.648 102.539C215.648 102.539 217.976 99.1788 219.648 101.59C221.32 104 214.992 112.325 214.992 112.325L215.648 102.539Z" fill="white" stroke="#263238" stroke-linecap="round" stroke-linejoin="round"/>
<path d="M188.208 100.64C188.208 100.64 189.632 116.264 189.896 118.986C190.16 121.708 191.056 127.546 192.096 129.578C193.136 131.611 200.248 139.23 202.184 138.415C204.12 137.6 210.856 130.259 212.672 128.083C214.488 125.908 213.832 121.968 214.096 121.019C214.36 120.07 215.384 110.695 215.384 110.695L216 100.8C216 100.8 216.264 99.8508 215.872 93.7356C215.48 87.6204 215.488 84.8988 214.84 83.4036C214.192 81.9084 212.512 81.0936 209.528 80.2788C206.544 79.464 199.44 79.6068 195.04 81.9168C190.64 84.2268 188.44 87.486 188.312 88.704C188.184 89.922 188.208 100.64 188.208 100.64Z" fill="white" stroke="#263238" stroke-linecap="round" stroke-linejoin="round"/>
<path d="M200.12 96.1548C200.12 96.1548 196.12 93.4332 193.904 96.9948" stroke="#263238" stroke-linecap="round" stroke-linejoin="round"/>
<path d="M205.68 96.4236C206.529 95.8818 207.526 95.6545 208.512 95.7778C209.498 95.9011 210.416 96.3681 211.12 97.104" stroke="#263238" stroke-linecap="round" stroke-linejoin="round"/>
<path d="M204.52 97.7844C205.054 98.815 205.329 99.9713 205.32 101.144C205.448 103.589 205.056 108.612 205.056 108.612L200.144 108.066" stroke="#263238" stroke-linecap="round" stroke-linejoin="round"/>
<path d="M197.528 109.88C197.528 109.88 199.984 114.08 206.2 111.913" stroke="#263238" stroke-linecap="round" stroke-linejoin="round"/>
<path d="M198.304 100.162C198.304 100.951 197.96 101.59 197.504 101.59C197.048 101.59 196.704 100.951 196.704 100.162C196.704 99.372 197.056 98.7336 197.504 98.7336C197.952 98.7336 198.304 99.372 198.304 100.162Z" fill="#263238"/>
<path d="M209.304 100.162C209.304 100.951 208.96 101.59 208.504 101.59C208.048 101.59 207.704 100.951 207.704 100.162C207.704 99.372 208.048 98.7336 208.504 98.7336C208.96 98.7336 209.304 99.372 209.304 100.162Z" fill="#263238"/>
<path d="M199.344 102.001C198.319 103.018 197.076 103.761 195.72 104.168" stroke="#263238" stroke-linecap="round" stroke-linejoin="round"/>
<path d="M206.976 102.001C206.976 102.001 208.528 103.9 210.344 104.168" stroke="#263238" stroke-linecap="round" stroke-linejoin="round"/>
<path d="M197.656 122.926C197.656 122.926 200.12 126.05 206.976 123.06" stroke="#263238" stroke-linecap="round" stroke-linejoin="round"/>
<path d="M186.792 87.864C186.792 87.864 187.176 101.59 187.592 101.858C188.008 102.127 189.144 102.404 189.4 101.455C189.56 99.9662 189.603 98.466 189.528 96.9696C189.528 96.9696 190.824 96.8352 191.08 94.6596C191.336 92.484 190.176 88.6788 190.176 88.6788C190.176 88.6788 194.832 85.1508 199.232 83.79C203.632 82.4292 205.968 84.4704 208.68 84.63C210.273 84.7249 211.842 84.1916 213.08 83.1348C213.08 83.1348 211.784 85.176 211.784 86.1252C211.784 87.0744 213.472 92.106 213.208 93.6012C212.944 95.0964 212.696 96.726 213.472 97.2636C214.248 97.8012 215.152 98.49 215.152 98.49C215.152 98.49 215.152 102.161 215.672 102.43C216.192 102.698 217.096 101.212 217.224 99.1704C217.352 97.1292 217.352 92.2404 218.024 90.7704C218.696 89.3004 219.704 88.1916 218.928 86.016C218.152 83.8404 215.432 81.942 215.048 81.816C214.664 81.69 209.744 75.0288 203.4 73.416C197.056 71.8032 186.968 81.3036 185.928 84.294C184.888 87.2844 186.792 87.864 186.792 87.864Z" fill="#263238" stroke="#263238" stroke-linecap="round" stroke-linejoin="round"/>
<path d="M129.688 136.08C128.955 134.169 128.359 132.204 127.904 130.2C127.624 128.327 125.424 125.294 123.232 124.429C120.864 123.469 118.745 121.935 117.048 119.952C115.12 117.793 114.024 117.071 113.744 119.23C113.464 121.388 114.848 122.405 116.224 123.707C117.6 125.009 118.968 126.16 118.968 126.16C117.589 126.629 116.159 126.911 114.712 127C112.172 127.131 109.628 126.888 107.152 126.277C105.088 125.698 97.9441 120.221 98.6321 122.38C99.3201 124.538 102.752 127.285 105.504 130.032C108.256 132.779 110.04 134.232 113.2 135.223C116.36 136.214 121.44 137.533 121.44 137.533L124.328 141.574L129.688 136.08Z" fill="white" stroke="#263238" stroke-linecap="round" stroke-linejoin="round"/>
<path d="M108.392 132.191C108.392 132.191 103.992 128.73 103.304 124.832C102.616 120.935 102.896 119.498 103.856 120.07C104.816 120.641 107.152 126.277 107.152 126.277L111.272 131.04" fill="white"/>
<path d="M108.392 132.191C108.392 132.191 103.992 128.73 103.304 124.832C102.616 120.935 102.896 119.498 103.856 120.07C104.816 120.641 107.152 126.277 107.152 126.277L111.272 131.04" stroke="#263238" stroke-linecap="round" stroke-linejoin="round"/>
<path d="M112.096 134.072C112.096 134.072 107.976 131.468 107.568 128.873C107.16 126.277 106.192 118.633 107.152 119.204C108.112 119.776 110.04 127.865 110.04 127.865L112.376 130.032" fill="white"/>
<path d="M112.096 134.072C112.096 134.072 107.976 131.468 107.568 128.873C107.16 126.277 106.192 118.633 107.152 119.204C108.112 119.776 110.04 127.865 110.04 127.865L112.376 130.032" stroke="#263238" stroke-linecap="round" stroke-linejoin="round"/>
<path d="M114.4 134.215C114.4 134.215 111.928 129.175 111.376 127.579C110.824 125.983 109.592 119.356 110.832 119.641C112.072 119.927 113.168 126.563 113.168 126.563L116.328 130.763C116.328 130.763 120.72 129.318 121.928 129.604C123.136 129.889 124.68 132.493 124.68 132.493" fill="white"/>
<path d="M114.4 134.215C114.4 134.215 111.928 129.175 111.376 127.579C110.824 125.983 109.592 119.356 110.832 119.641C112.072 119.927 113.168 126.563 113.168 126.563L116.328 130.763C116.328 130.763 120.72 129.318 121.928 129.604C123.136 129.889 124.68 132.493 124.68 132.493" stroke="#263238" stroke-linecap="round" stroke-linejoin="round"/>
<path d="M132.952 138.373L129.664 135.173L121.544 144.068L123.928 147.353L132.952 138.373Z" fill="white" stroke="#263238" stroke-linecap="round" stroke-linejoin="round"/>
<path d="M190.856 124.043C190.856 124.043 188.072 147.176 187.704 160.406C187.336 173.636 188.632 243.054 188.632 243.054L164 242.273C164 242.273 166.776 217.77 168.8 208.824C170.192 201.926 170.69 194.862 170.28 187.824C170.096 186.656 168.8 175.963 168.8 175.963C168.8 175.963 154.904 185.682 153.24 185.489C151.576 185.296 141.944 177.929 134.536 168.185C129.825 161.794 126.02 154.721 123.24 147.185L132 136.676L152.744 158.458C152.744 158.458 163.48 135.71 164.592 135.122C165.704 134.534 190.856 124.043 190.856 124.043Z" fill="#77523D" stroke="#263238" stroke-linecap="round" stroke-linejoin="round"/>
<path d="M180.624 164.027C181.972 171.563 183.904 178.971 186.4 186.178" stroke="#263238" stroke-linecap="round" stroke-linejoin="round"/>
<path d="M186.128 127.924L181.648 139.826L185.232 142.96L178.968 149.848C179.116 153.398 179.474 156.936 180.04 160.44" stroke="#263238" stroke-linecap="round" stroke-linejoin="round"/>
<path d="M168.256 172.847C168.256 172.847 164.552 155.736 163.456 148.932L168.256 172.847Z" fill="white"/>
<path d="M168.256 172.847C168.256 172.847 164.552 155.736 163.456 148.932" stroke="#263238" stroke-linecap="round" stroke-linejoin="round"/>
<path d="M190.456 137.256L193.616 146.992L202.192 138.415L209 147.655L211.984 139.348" fill="white"/>
<path d="M190.456 137.256L193.616 146.992L202.192 138.415L209 147.655L211.984 139.348" stroke="#263238" stroke-linecap="round" stroke-linejoin="round"/>
<path d="M205.488 143.447L201.616 150.704L197.168 143.396L202.192 138.415L205.488 143.447Z" fill="#263238" stroke="#263238" stroke-linecap="round" stroke-linejoin="round"/>
<path d="M201.616 150.704L192.992 211.336L200.68 217.829L206.68 211.142L201.616 150.704Z" fill="#263238" stroke="#263238" stroke-linecap="round" stroke-linejoin="round"/>
<path d="M235.882 126.08C242.029 124.546 245.827 118.07 244.366 111.616C242.905 105.162 236.738 101.173 230.591 102.707C224.444 104.241 220.645 110.717 222.106 117.171C223.567 123.626 229.735 127.614 235.882 126.08Z" fill="white" stroke="#263238" stroke-linecap="round" stroke-linejoin="round"/>
<path d="M225.72 129.847C225.72 129.847 225.328 135.223 225.624 136.256C225.92 137.29 228.024 141.422 228.024 141.422C228.024 141.422 227.728 144.32 228.216 145.253C228.704 146.185 233.432 152.074 233.432 152.074L239.032 146.899L235.856 140.28L235.76 131.704C235.76 131.704 229.6 126.134 225.72 129.847Z" fill="white" stroke="#263238" stroke-linecap="round" stroke-linejoin="round"/>
<path d="M228.504 123.917L230.232 138.827C230.328 139.585 230.703 140.274 231.278 140.746C231.852 141.217 232.58 141.433 233.304 141.347C234.001 141.265 234.643 140.909 235.101 140.352C235.56 139.794 235.801 139.076 235.776 138.34L235.28 123.11C235.28 123.11 231.008 119.742 228.504 123.917Z" fill="white" stroke="#263238" stroke-linecap="round" stroke-linejoin="round"/>
<path d="M228.8 127.168C228.8 127.168 225.12 127.63 225.12 128.848C225.12 130.066 226.44 135.652 227.616 135.962C228.792 136.273 229.68 136.273 229.68 133.795C229.56 131.564 229.265 129.348 228.8 127.168Z" fill="white" stroke="#263238" stroke-linecap="round" stroke-linejoin="round"/>
<path d="M237.488 131.342C237.488 131.342 228.944 132.115 228.8 133.022C228.656 133.93 228.944 136.273 229.536 136.273C230.128 136.273 237.776 136.332 237.928 135.433C238.08 134.534 238.52 132.577 237.488 131.342Z" fill="white" stroke="#263238" stroke-linecap="round" stroke-linejoin="round"/>
<path d="M237.224 135.694C237.224 135.694 229.616 136.139 229.456 136.962C229.296 137.785 229.504 139.852 230.032 139.868C230.56 139.885 237.352 140.154 237.512 139.373C237.672 138.592 238.112 136.819 237.224 135.694Z" fill="white" stroke="#263238" stroke-linecap="round" stroke-linejoin="round"/>
<path d="M236.184 139.574C236.184 139.574 229.88 139.944 229.784 140.624C229.688 141.305 229.824 143.018 230.264 143.035C230.704 143.052 236.32 143.27 236.448 142.624C236.576 141.977 236.92 140.507 236.184 139.574Z" fill="white" stroke="#263238" stroke-linecap="round" stroke-linejoin="round"/>
<path d="M236.896 127.319C236.896 127.319 228.352 128.092 228.208 128.999C228.064 129.906 228.352 132.241 228.944 132.241C229.536 132.241 237.184 132.308 237.336 131.401C237.488 130.494 237.928 128.52 236.896 127.319Z" fill="white" stroke="#263238" stroke-linecap="round" stroke-linejoin="round"/>
<path d="M238.896 143.959L236.416 142.624L229.688 151.284L232.448 155.148L238.896 143.959Z" fill="white" stroke="#263238" stroke-linecap="round" stroke-linejoin="round"/>
<path d="M238.4 142.43C238.4 142.43 235.952 148.42 234.12 150.562C232.288 152.704 230.24 154.627 230.24 154.627C230.24 154.627 238.8 175.82 240 179.886C241.2 183.952 245.912 186.732 247.952 187.37C249.992 188.009 254.88 186.304 256.752 184.162C258.624 182.02 261.232 175.174 259.808 171.326C258.384 167.479 238.4 142.43 238.4 142.43Z" fill="#77523D" stroke="#263238" stroke-linecap="round" stroke-linejoin="round"/>
<path d="M252.423 130.33C263.488 127.323 270.137 115.466 267.273 103.848C264.41 92.2287 253.118 85.2475 242.052 88.2545C230.987 91.2615 224.338 103.118 227.202 114.737C230.065 126.356 241.357 133.337 252.423 130.33Z" fill="#77523D" stroke="#263238" stroke-linecap="round" stroke-linejoin="round"/>
<path d="M251.033 126.536C260.107 124.333 265.763 114.823 263.664 105.295C261.566 95.7672 252.509 89.8293 243.434 92.0325C234.36 94.2357 228.705 103.746 230.803 113.274C232.902 122.802 241.959 128.74 251.033 126.536Z" fill="#263238" stroke="#263238" stroke-linecap="round" stroke-linejoin="round"/>
<path d="M245.608 117.34C249.386 117.34 252.448 114.124 252.448 110.158C252.448 106.191 249.386 102.976 245.608 102.976C241.83 102.976 238.768 106.191 238.768 110.158C238.768 114.124 241.83 117.34 245.608 117.34Z" fill="white" stroke="#263238" stroke-linecap="round" stroke-linejoin="round"/>
<path d="M251.008 109.309C251.01 108.525 250.79 107.757 250.376 107.104C249.962 106.451 249.372 105.942 248.683 105.64C247.993 105.339 247.233 105.259 246.5 105.411C245.767 105.563 245.094 105.94 244.565 106.494C244.036 107.048 243.676 107.755 243.529 108.524C243.383 109.294 243.457 110.091 243.743 110.816C244.028 111.541 244.512 112.161 245.133 112.597C245.755 113.033 246.485 113.266 247.232 113.266C248.232 113.266 249.191 112.849 249.899 112.107C250.607 111.366 251.006 110.359 251.008 109.309Z" fill="#77523D" stroke="#263238" stroke-linecap="round" stroke-linejoin="round"/>
</svg>
