<svg width="194" height="107" viewBox="0 0 194 107" fill="none" xmlns="http://www.w3.org/2000/svg">
<path d="M189.147 71.071H29.1583V105.195H189.2C187.76 93.8692 187.743 82.4015 189.147 71.071Z" fill="#B93160"/>
<path opacity="0.7" d="M189.147 71.071H29.1583V105.195H189.2C187.76 93.8692 187.743 82.4015 189.147 71.071Z" fill="white"/>
<path d="M58.3079 106.991H8.02489L7.51565 106.461C5.13301 104.026 3.24289 101.135 1.95331 97.952C0.663742 94.7694 0 91.3581 0 87.913C0 84.468 0.663742 81.0567 1.95331 77.8741C3.24289 74.6915 5.13301 71.8 7.51565 69.3648L8.02489 68.844H58.3079L55.314 71.9062C51.1657 76.1528 48.8356 81.9102 48.8356 87.913C48.8356 93.9159 51.1657 99.6732 55.314 103.92L58.3079 106.991Z" fill="#B93160"/>
<g opacity="0.3">
<path d="M58.3079 106.991H8.02489L7.51565 106.461C5.13301 104.026 3.24289 101.135 1.95331 97.952C0.663742 94.7694 0 91.3581 0 87.913C0 84.468 0.663742 81.0567 1.95331 77.8741C3.24289 74.6915 5.13301 71.8 7.51565 69.3648L8.02489 68.844H58.3079L55.314 71.9062C51.1657 76.1528 48.8356 81.9102 48.8356 87.913C48.8356 93.9159 51.1657 99.6732 55.314 103.92L58.3079 106.991Z" fill="black"/>
</g>
<path d="M190.789 106.991H54.9803L54.8311 106.838C50.0796 102.083 47.2576 95.6691 46.9291 88.8782C46.7998 85.2726 47.4025 81.6788 48.6991 78.3234C49.9956 74.9679 51.958 71.9237 54.4623 69.3826L54.9803 68.8618H190.789C191.255 68.8618 191.702 69.051 192.031 69.3879C192.36 69.7247 192.545 70.1815 192.545 70.6578C192.545 71.1341 192.36 71.591 192.031 71.9278C191.702 72.2646 191.255 72.4538 190.789 72.4538H56.4554C52.6142 76.6516 50.4771 82.1859 50.4771 87.9353C50.4771 93.6847 52.6142 99.2191 56.4554 103.417H190.789C191.255 103.417 191.702 103.606 192.031 103.943C192.36 104.28 192.545 104.737 192.545 105.213C192.541 105.686 192.354 106.138 192.025 106.471C191.696 106.804 191.252 106.991 190.789 106.991Z" fill="#B93160"/>
<path d="M176.592 83.7506H168.91C168.56 83.7506 168.225 83.6087 167.978 83.3561C167.731 83.1035 167.593 82.7609 167.593 82.4036C167.593 82.0464 167.731 81.7038 167.978 81.4512C168.225 81.1985 168.56 81.0566 168.91 81.0566H176.592C176.941 81.0566 177.276 81.1985 177.523 81.4512C177.77 81.7038 177.909 82.0464 177.909 82.4036C177.909 82.7609 177.77 83.1035 177.523 83.3561C177.276 83.6087 176.941 83.7506 176.592 83.7506Z" fill="white"/>
<path d="M158.857 83.7506H87.4751C87.1258 83.7506 86.7908 83.6087 86.5439 83.3561C86.2969 83.1035 86.1581 82.7609 86.1581 82.4036C86.1581 82.0464 86.2969 81.7038 86.5439 81.4512C86.7908 81.1985 87.1258 81.0566 87.4751 81.0566H158.857C159.206 81.0566 159.541 81.1985 159.788 81.4512C160.035 81.7038 160.174 82.0464 160.174 82.4036C160.174 82.7609 160.035 83.1035 159.788 83.3561C159.541 83.6087 159.206 83.7506 158.857 83.7506Z" fill="white"/>
<path d="M77.8171 83.7506H62.0131C61.6638 83.7506 61.3288 83.6087 61.0819 83.3561C60.8349 83.1035 60.6961 82.7609 60.6961 82.4036C60.6961 82.0464 60.8349 81.7038 61.0819 81.4512C61.3288 81.1985 61.6638 81.0566 62.0131 81.0566H77.8171C78.1664 81.0566 78.5014 81.1985 78.7484 81.4512C78.9954 81.7038 79.1341 82.0464 79.1341 82.4036C79.1341 82.7609 78.9954 83.1035 78.7484 83.3561C78.5014 83.6087 78.1664 83.7506 77.8171 83.7506Z" fill="white"/>
<path d="M176.592 95.1642H108.986C108.637 95.1642 108.302 95.0223 108.055 94.7697C107.808 94.5171 107.669 94.1745 107.669 93.8172C107.669 93.46 107.808 93.1174 108.055 92.8648C108.302 92.6122 108.637 92.4702 108.986 92.4702H176.592C176.941 92.4702 177.276 92.6122 177.523 92.8648C177.77 93.1174 177.909 93.46 177.909 93.8172C177.909 94.1745 177.77 94.5171 177.523 94.7697C177.276 95.0223 176.941 95.1642 176.592 95.1642Z" fill="white"/>
<path d="M99.1525 95.1642H62.0131C61.6638 95.1642 61.3288 95.0223 61.0819 94.7697C60.8349 94.5171 60.6961 94.1745 60.6961 93.8172C60.6961 93.46 60.8349 93.1174 61.0819 92.8648C61.3288 92.6122 61.6638 92.4702 62.0131 92.4702H99.1525C99.5018 92.4702 99.8368 92.6122 100.084 92.8648C100.331 93.1174 100.47 93.46 100.47 93.8172C100.47 94.1745 100.331 94.5171 100.084 94.7697C99.8368 95.0223 99.5018 95.1642 99.1525 95.1642Z" fill="white"/>
<path d="M184.907 2.1853H40.9148V32.8969H184.959C183.66 22.704 183.642 12.3828 184.907 2.1853Z" fill="#B93160"/>
<path opacity="0.8" d="M184.907 2.1853H40.9148V32.8969H184.959C183.66 22.704 183.642 12.3828 184.907 2.1853Z" fill="white"/>
<path d="M67.1494 34.5134H21.8885L21.4232 34.0375C19.28 31.846 17.5799 29.2441 16.4199 26.3806C15.26 23.517 14.663 20.4477 14.663 17.3481C14.663 14.2485 15.26 11.1793 16.4199 8.3157C17.5799 5.45211 19.28 2.85029 21.4232 0.6588L21.8885 0.182861H67.1406L64.4539 2.93074C60.7218 6.7543 58.6256 11.9363 58.6256 17.3392C58.6256 22.742 60.7218 27.924 64.4539 31.7476L67.1494 34.5134Z" fill="#B93160"/>
<g opacity="0.2">
<path d="M67.1494 34.5134H21.8885L21.4232 34.0375C19.28 31.846 17.5799 29.2441 16.4199 26.3806C15.26 23.517 14.663 20.4477 14.663 17.3481C14.663 14.2485 15.26 11.1793 16.4199 8.3157C17.5799 5.45211 19.28 2.85029 21.4232 0.6588L21.8885 0.182861H67.1406L64.4539 2.93074C60.7218 6.7543 58.6256 11.9363 58.6256 17.3392C58.6256 22.742 60.7218 27.924 64.4539 31.7476L67.1494 34.5134Z" fill="white"/>
</g>
<path d="M186.382 34.5134H64.1554L64.0325 34.3607C59.7652 30.0782 57.2375 24.3047 56.9558 18.1967C56.832 14.9553 57.3673 11.7229 58.528 8.70408C59.6887 5.68523 61.4495 2.94568 63.6989 0.6588L64.1642 0.182861H186.382C186.801 0.182861 187.203 0.353145 187.499 0.656279C187.796 0.959413 187.962 1.37055 187.962 1.79925C187.962 2.22795 187.796 2.63909 187.499 2.94222C187.203 3.24536 186.801 3.41567 186.382 3.41567H65.4724C62.0222 7.19141 60.1029 12.1666 60.1029 17.3347C60.1029 22.5028 62.0222 27.4779 65.4724 31.2537H186.382C186.801 31.2537 187.203 31.424 187.499 31.7271C187.796 32.0302 187.962 32.4414 187.962 32.8701C187.966 33.0846 187.927 33.2977 187.85 33.4969C187.772 33.6961 187.656 33.8775 187.509 34.0305C187.362 34.1834 187.186 34.3049 186.993 34.3878C186.799 34.4708 186.592 34.5134 186.382 34.5134Z" fill="#B93160"/>
<g opacity="0.4">
<path d="M186.382 34.5134H64.1554L64.0325 34.3607C59.7652 30.0782 57.2375 24.3047 56.9558 18.1967C56.832 14.9553 57.3673 11.7229 58.528 8.70408C59.6887 5.68523 61.4495 2.94568 63.6989 0.6588L64.1642 0.182861H186.382C186.801 0.182861 187.203 0.353145 187.499 0.656279C187.796 0.959413 187.962 1.37055 187.962 1.79925C187.962 2.22795 187.796 2.63909 187.499 2.94222C187.203 3.24536 186.801 3.41567 186.382 3.41567H65.4724C62.0222 7.19141 60.1029 12.1666 60.1029 17.3347C60.1029 22.5028 62.0222 27.4779 65.4724 31.2537H186.382C186.801 31.2537 187.203 31.424 187.499 31.7271C187.796 32.0302 187.962 32.4414 187.962 32.8701C187.966 33.0846 187.927 33.2977 187.85 33.4969C187.772 33.6961 187.656 33.8775 187.509 34.0305C187.362 34.1834 187.186 34.3049 186.993 34.3878C186.799 34.4708 186.592 34.5134 186.382 34.5134Z" fill="white"/>
</g>
<path d="M173.607 13.6348H166.688C166.374 13.6348 166.072 13.5071 165.85 13.2797C165.628 13.0524 165.503 12.744 165.503 12.4225C165.503 12.2633 165.534 12.1057 165.593 11.9586C165.653 11.8115 165.74 11.6779 165.85 11.5653C165.96 11.4527 166.091 11.3634 166.235 11.3025C166.379 11.2416 166.533 11.2102 166.688 11.2102H173.607C173.763 11.2102 173.917 11.2416 174.061 11.3025C174.204 11.3634 174.335 11.4527 174.445 11.5653C174.555 11.6779 174.642 11.8115 174.702 11.9586C174.762 12.1057 174.792 12.2633 174.792 12.4225C174.792 12.744 174.667 13.0524 174.445 13.2797C174.223 13.5071 173.921 13.6348 173.607 13.6348Z" fill="white"/>
<path d="M157.601 13.6349H93.4016C93.2456 13.636 93.091 13.6055 92.9466 13.545C92.8023 13.4845 92.6712 13.3952 92.5609 13.2824C92.4506 13.1696 92.3633 13.0355 92.3042 12.8879C92.245 12.7403 92.2151 12.5821 92.2163 12.4225C92.2151 12.263 92.245 12.1048 92.3042 11.9572C92.3633 11.8096 92.4506 11.6754 92.5609 11.5626C92.6712 11.4498 92.8023 11.3606 92.9466 11.3001C93.091 11.2396 93.2456 11.209 93.4016 11.2102H157.601C157.757 11.209 157.912 11.2396 158.056 11.3001C158.2 11.3606 158.331 11.4498 158.442 11.5626C158.552 11.6754 158.639 11.8096 158.698 11.9572C158.758 12.1048 158.787 12.263 158.786 12.4225C158.787 12.5821 158.758 12.7403 158.698 12.8879C158.639 13.0355 158.552 13.1696 158.442 13.2824C158.331 13.3952 158.2 13.4845 158.056 13.545C157.912 13.6055 157.757 13.636 157.601 13.6349Z" fill="white"/>
<path d="M84.7094 13.6349H70.4858C70.3298 13.636 70.1752 13.6055 70.0308 13.545C69.8865 13.4845 69.7554 13.3952 69.6451 13.2824C69.5348 13.1696 69.4475 13.0355 69.3884 12.8879C69.3292 12.7403 69.2993 12.5821 69.3005 12.4225C69.2993 12.263 69.3292 12.1048 69.3884 11.9572C69.4475 11.8096 69.5348 11.6754 69.6451 11.5626C69.7554 11.4498 69.8865 11.3606 70.0308 11.3001C70.1752 11.2396 70.3298 11.209 70.4858 11.2102H84.7094C84.8654 11.209 85.02 11.2396 85.1644 11.3001C85.3087 11.3606 85.4398 11.4498 85.5501 11.5626C85.6604 11.6754 85.7477 11.8096 85.8069 11.9572C85.866 12.1048 85.8959 12.263 85.8947 12.4225C85.8959 12.5821 85.866 12.7403 85.8069 12.8879C85.7477 13.0355 85.6604 13.1696 85.5501 13.2824C85.4398 13.3952 85.3087 13.4845 85.1644 13.545C85.02 13.6055 84.8654 13.636 84.7094 13.6349Z" fill="white"/>
<path d="M173.607 23.8722H112.762C112.606 23.8733 112.451 23.8428 112.307 23.7823C112.162 23.7218 112.031 23.6325 111.921 23.5197C111.81 23.4069 111.723 23.2728 111.664 23.1252C111.605 22.9776 111.575 22.8194 111.576 22.6598C111.575 22.5003 111.605 22.3421 111.664 22.1945C111.723 22.0469 111.81 21.9128 111.921 21.8C112.031 21.6872 112.162 21.5979 112.307 21.5374C112.451 21.4769 112.606 21.4463 112.762 21.4475H173.607C173.921 21.4475 174.223 21.5753 174.445 21.8026C174.667 22.03 174.792 22.3383 174.792 22.6598C174.792 22.9814 174.667 23.2897 174.445 23.5171C174.223 23.7444 173.921 23.8722 173.607 23.8722Z" fill="white"/>
<path d="M103.867 23.8721H70.5034C70.3481 23.8756 70.1937 23.8477 70.0491 23.79C69.9044 23.7322 69.7724 23.6458 69.6606 23.5356C69.5488 23.4254 69.4594 23.2936 69.3976 23.148C69.3358 23.0023 69.3028 22.8455 69.3005 22.6867C69.2993 22.5272 69.3292 22.369 69.3884 22.2214C69.4475 22.0737 69.5348 21.9396 69.6451 21.8268C69.7554 21.714 69.8865 21.6248 70.0308 21.5643C70.1752 21.5038 70.3298 21.4732 70.4858 21.4744H103.85C104.006 21.4732 104.16 21.5038 104.305 21.5643C104.449 21.6248 104.58 21.714 104.691 21.8268C104.801 21.9396 104.888 22.0737 104.947 22.2214C105.006 22.369 105.036 22.5272 105.035 22.6867C105.031 23.0012 104.906 23.3013 104.688 23.5229C104.469 23.7444 104.175 23.8698 103.867 23.8721Z" fill="white"/>
<path d="M189.973 36.5159H45.9808V67.2275H190.026C188.726 57.0346 188.708 46.7134 189.973 36.5159Z" fill="#B93160"/>
<path opacity="0.7" d="M189.973 36.5159H45.9808V67.2275H190.026C188.726 57.0346 188.708 46.7134 189.973 36.5159Z" fill="white"/>
<path d="M72.2242 68.8439H26.9633L26.5068 68.368C24.3636 66.1765 22.6635 63.5747 21.5036 60.7111C20.3437 57.8475 19.7466 54.7783 19.7466 51.6787C19.7466 48.5791 20.3437 45.5098 21.5036 42.6463C22.6635 39.7827 24.3636 37.1809 26.5068 34.9894L26.9633 34.5134H72.2242L69.5288 37.2703C67.6776 39.1617 66.2091 41.4078 65.2072 43.8801C64.2052 46.3524 63.6895 49.0024 63.6895 51.6787C63.6895 54.3549 64.2052 57.005 65.2072 59.4772C66.2091 61.9495 67.6776 64.1956 69.5288 66.0871L72.2242 68.8439Z" fill="#B93160"/>
<path d="M191.457 68.8438H69.2215L69.0898 68.7091C64.8225 64.4266 62.2948 58.653 62.0131 52.5451C61.8925 49.3041 62.4293 46.0726 63.5898 43.0543C64.7503 40.0359 66.5094 37.296 68.7562 35.0072L69.2215 34.5312H191.457C191.875 34.5336 192.276 34.7047 192.572 35.0073C192.868 35.3099 193.035 35.7197 193.037 36.1476C193.035 36.5756 192.868 36.9854 192.572 37.288C192.276 37.5906 191.875 37.7617 191.457 37.7641H70.5473C67.0912 41.5368 65.168 46.5131 65.168 51.6831C65.168 56.853 67.0912 61.8293 70.5473 65.6021H191.457C191.664 65.6021 191.87 65.6438 192.061 65.7251C192.253 65.8063 192.427 65.9254 192.574 66.0755C192.721 66.2256 192.837 66.4038 192.917 66.5999C192.996 66.796 193.037 67.0062 193.037 67.2184C193.037 67.648 192.871 68.06 192.575 68.3646C192.279 68.6692 191.877 68.8414 191.457 68.8438Z" fill="#B93160"/>
<g opacity="0.3">
<path d="M191.457 68.8438H69.2215L69.0898 68.7091C64.8225 64.4266 62.2948 58.653 62.0131 52.5451C61.8925 49.3041 62.4293 46.0726 63.5898 43.0543C64.7503 40.0359 66.5094 37.296 68.7562 35.0072L69.2215 34.5312H191.457C191.875 34.5336 192.276 34.7047 192.572 35.0073C192.868 35.3099 193.035 35.7197 193.037 36.1476C193.035 36.5756 192.868 36.9854 192.572 37.288C192.276 37.5906 191.875 37.7617 191.457 37.7641H70.5473C67.0912 41.5368 65.168 46.5131 65.168 51.6831C65.168 56.853 67.0912 61.8293 70.5473 65.6021H191.457C191.664 65.6021 191.87 65.6438 192.061 65.7251C192.253 65.8063 192.427 65.9254 192.574 66.0755C192.721 66.2256 192.837 66.4038 192.917 66.5999C192.996 66.796 193.037 67.0062 193.037 67.2184C193.037 67.648 192.871 68.06 192.575 68.3646C192.279 68.6692 191.877 68.8414 191.457 68.8438Z" fill="white"/>
</g>
<path d="M75.5519 55.7781H82.4705C82.7849 55.7781 83.0864 55.9058 83.3086 56.1331C83.5309 56.3605 83.6558 56.6689 83.6558 56.9904C83.6535 57.3112 83.5279 57.6182 83.3061 57.845C83.0843 58.0718 82.7842 58.2003 82.4705 58.2027H75.5519C75.2382 58.2003 74.9381 58.0718 74.7163 57.845C74.4945 57.6182 74.3689 57.3112 74.3666 56.9904C74.3666 56.6689 74.4915 56.3605 74.7137 56.1331C74.936 55.9058 75.2375 55.7781 75.5519 55.7781Z" fill="white"/>
<path d="M91.5578 55.7781H155.757C155.913 55.7769 156.068 55.8074 156.212 55.8679C156.356 55.9284 156.488 56.0177 156.598 56.1305C156.708 56.2433 156.795 56.3774 156.855 56.5251C156.914 56.6727 156.944 56.8309 156.942 56.9904C156.942 57.1496 156.912 57.3072 156.852 57.4543C156.793 57.6014 156.705 57.7351 156.595 57.8476C156.485 57.9602 156.355 58.0495 156.211 58.1104C156.067 58.1713 155.913 58.2027 155.757 58.2027H91.5578C91.4021 58.2027 91.248 58.1713 91.1042 58.1104C90.9604 58.0495 90.8297 57.9602 90.7197 57.8476C90.6096 57.7351 90.5223 57.6014 90.4627 57.4543C90.4032 57.3072 90.3725 57.1496 90.3725 56.9904C90.3713 56.8309 90.4012 56.6727 90.4603 56.5251C90.5195 56.3774 90.6068 56.2433 90.7171 56.1305C90.8274 56.0177 90.9585 55.9284 91.1028 55.8679C91.2472 55.8074 91.4018 55.7769 91.5578 55.7781Z" fill="white"/>
<path d="M164.449 55.778H178.673C178.829 55.7768 178.984 55.8073 179.128 55.8678C179.272 55.9283 179.403 56.0176 179.514 56.1304C179.624 56.2432 179.711 56.3773 179.77 56.5249C179.83 56.6725 179.859 56.8307 179.858 56.9903C179.858 57.1495 179.828 57.3071 179.768 57.4542C179.708 57.6013 179.621 57.7349 179.511 57.8475C179.401 57.9601 179.27 58.0494 179.127 58.1103C178.983 58.1712 178.829 58.2025 178.673 58.2025H164.449C164.293 58.2037 164.137 58.1733 163.992 58.113C163.846 58.0528 163.714 57.9638 163.602 57.8512C163.491 57.7386 163.402 57.6047 163.341 57.4569C163.28 57.3092 163.248 57.1507 163.247 56.9903C163.247 56.8295 163.278 56.6704 163.338 56.5221C163.399 56.3739 163.488 56.2394 163.6 56.1266C163.712 56.0138 163.845 55.9249 163.99 55.865C164.136 55.8052 164.292 55.7756 164.449 55.778Z" fill="white"/>
<path d="M75.5519 45.5408H136.397C136.553 45.5396 136.708 45.5701 136.852 45.6306C136.997 45.6911 137.128 45.7804 137.238 45.8932C137.348 46.006 137.436 46.1401 137.495 46.2878C137.554 46.4354 137.584 46.5935 137.583 46.7531C137.583 46.9123 137.552 47.0699 137.492 47.217C137.433 47.3641 137.345 47.4978 137.235 47.6103C137.125 47.7229 136.995 47.8122 136.851 47.8731C136.707 47.934 136.553 47.9654 136.397 47.9654H75.5519C75.2382 47.963 74.9381 47.8346 74.7163 47.6077C74.4945 47.3809 74.3689 47.0739 74.3666 46.7531C74.3666 46.4316 74.4915 46.1232 74.7137 45.8959C74.936 45.6685 75.2375 45.5408 75.5519 45.5408Z" fill="white"/>
<path d="M145.291 45.5408H178.655C178.811 45.5396 178.966 45.5701 179.11 45.6306C179.255 45.6911 179.386 45.7804 179.496 45.8932C179.606 46.006 179.694 46.1401 179.753 46.2878C179.812 46.4354 179.842 46.5935 179.841 46.7531C179.841 47.0746 179.716 47.383 179.494 47.6103C179.271 47.8377 178.97 47.9654 178.655 47.9654H145.291C145.136 47.9654 144.982 47.934 144.838 47.8731C144.694 47.8122 144.563 47.7229 144.453 47.6103C144.343 47.4978 144.256 47.3641 144.196 47.217C144.137 47.0699 144.106 46.9123 144.106 46.7531C144.105 46.5935 144.135 46.4354 144.194 46.2878C144.253 46.1401 144.34 46.006 144.451 45.8932C144.561 45.7804 144.692 45.6911 144.836 45.6306C144.981 45.5701 145.135 45.5396 145.291 45.5408Z" fill="white"/>
</svg>
