<svg width="402" height="375" viewBox="0 0 402 375" fill="none" xmlns="http://www.w3.org/2000/svg">
<path d="M329.637 282.891C344.892 280.394 355.089 266.834 352.413 252.604C349.737 238.374 335.201 228.861 319.946 231.358C304.691 233.854 294.493 247.414 297.17 261.644C299.846 275.875 314.382 285.387 329.637 282.891Z" fill="#AC7F6C"/>
<g opacity="0.1">
<path d="M314.726 232.695C311.29 233.929 308.149 235.782 305.481 238.149C302.814 240.516 300.672 243.35 299.179 246.489C297.686 249.628 296.87 253.011 296.779 256.444C296.687 259.877 297.322 263.293 298.646 266.497C298.646 266.497 317.355 260.67 318.931 252.173C320.507 243.675 314.726 232.695 314.726 232.695Z" fill="white"/>
</g>
<path d="M331.464 273.229C342.416 269.274 347.857 257.787 343.618 247.571C339.379 237.355 327.064 232.279 316.112 236.233C305.161 240.188 299.719 251.675 303.959 261.891C308.198 272.107 320.513 277.183 331.464 273.229Z" fill="#AC7F6C"/>
<g opacity="0.2">
<path d="M331.464 273.229C342.416 269.274 347.857 257.787 343.618 247.571C339.379 237.355 327.064 232.279 316.112 236.233C305.161 240.188 299.719 251.675 303.959 261.891C308.198 272.107 320.513 277.183 331.464 273.229Z" fill="black"/>
</g>
<path d="M344.996 250.305C346.494 253.926 346.806 257.88 345.894 261.667C344.982 265.454 342.887 268.903 339.873 271.579C336.859 274.255 333.062 276.036 328.962 276.699C324.863 277.361 320.645 276.874 316.842 275.3C313.039 273.726 309.822 271.134 307.598 267.854C305.374 264.574 304.242 260.752 304.347 256.872C304.452 252.992 305.788 249.228 308.187 246.057C310.585 242.885 313.938 240.449 317.821 239.055C323.024 237.188 328.809 237.324 333.905 239.433C339.001 241.543 342.99 245.453 344.996 250.305Z" fill="#AC7F6C"/>
<g opacity="0.2">
<path d="M344.996 250.305C346.494 253.926 346.806 257.88 345.894 261.667C344.982 265.454 342.887 268.903 339.873 271.579C336.859 274.255 333.062 276.036 328.962 276.699C324.863 277.361 320.645 276.874 316.842 275.3C313.039 273.726 309.822 271.134 307.598 267.854C305.374 264.574 304.242 260.752 304.347 256.872C304.452 252.992 305.788 249.228 308.187 246.057C310.585 242.885 313.938 240.449 317.821 239.055C323.024 237.188 328.809 237.324 333.905 239.433C339.001 241.543 342.99 245.453 344.996 250.305Z" fill="white"/>
</g>
<path d="M325.491 255.48L323.562 250.8C324.524 250.577 325.513 250.474 326.504 250.492C327.03 250.548 327.549 250.646 328.056 250.785V250.612L328.137 248.647V248.197L326.882 247.643L326.52 247.973C325.17 247.83 323.803 247.943 322.5 248.303L321.431 245.723L320.306 245.385L320.571 246.03L319.397 246.457L320.474 249.082C316.736 250.822 315.747 253.583 316.72 255.915C318.054 259.14 321.359 258.915 324.382 258.548L326.295 263.19C324.431 263.697 322.451 263.697 320.587 263.19L320.434 265.935C322.163 266.52 324.832 266.415 327.324 265.68L328.128 267.622L327.164 267.99L328.386 268.253L330.428 267.503L329.359 264.9C333.113 263.13 334.134 260.4 333.162 258.045C331.859 254.85 328.514 255.12 325.491 255.48ZM323.256 255.728C321.648 255.848 320.37 255.728 319.904 254.61C319.437 253.493 319.904 252.48 321.552 251.61L323.256 255.728ZM328.346 262.402L326.649 258.293C328.305 258.15 329.624 258.292 330.09 259.425C330.5 260.43 330.058 261.495 328.346 262.402Z" fill="#AC7F6C"/>
<g opacity="0.3">
<path d="M325.491 255.48L323.562 250.8C324.524 250.577 325.513 250.474 326.504 250.492C327.03 250.548 327.549 250.646 328.056 250.785V250.612L328.137 248.647V248.197L326.882 247.643L326.52 247.973C325.17 247.83 323.803 247.943 322.5 248.303L321.431 245.723L320.306 245.385L320.571 246.03L319.397 246.457L320.474 249.082C316.736 250.822 315.747 253.583 316.72 255.915C318.054 259.14 321.359 258.915 324.382 258.548L326.295 263.19C324.431 263.697 322.451 263.697 320.587 263.19L320.434 265.935C322.163 266.52 324.832 266.415 327.324 265.68L328.128 267.622L327.164 267.99L328.386 268.253L330.428 267.503L329.359 264.9C333.113 263.13 334.134 260.4 333.162 258.045C331.859 254.85 328.514 255.12 325.491 255.48ZM323.256 255.728C321.648 255.848 320.37 255.728 319.904 254.61C319.437 253.493 319.904 252.48 321.552 251.61L323.256 255.728ZM328.346 262.402L326.649 258.293C328.305 258.15 329.624 258.292 330.09 259.425C330.5 260.43 330.058 261.495 328.346 262.402Z" fill="black"/>
</g>
<path d="M328.281 264.593L329.359 267.195L327.316 267.945L326.255 265.365C323.755 266.115 321.085 266.205 319.357 265.628L319.51 262.883C321.374 263.385 323.353 263.385 325.218 262.883L323.304 258.24C320.281 258.6 316.977 258.825 315.65 255.6C314.67 253.23 315.65 250.508 319.397 248.768L318.32 246.143L320.362 245.393L321.423 247.973C323.234 247.402 325.169 247.266 327.051 247.575L326.995 250.29C325.48 250.058 323.931 250.122 322.444 250.478L324.382 255.173C327.405 254.805 330.75 254.535 332.076 257.768C333.065 260.108 332.052 262.823 328.281 264.593ZM322.147 255.39L320.442 251.25C318.778 252.142 318.376 253.245 318.834 254.25C319.293 255.255 320.539 255.517 322.147 255.39ZM328.989 259.095C328.514 257.955 327.204 257.813 325.548 257.955L327.244 262.065C328.949 261.158 329.399 260.092 328.989 259.095Z" fill="#AC7F6C"/>
<path d="M307.224 276.562C307.224 276.562 307.152 276.517 307.023 276.42L306.477 275.97C306.196 275.733 305.927 275.482 305.673 275.22C305.367 274.92 304.989 274.597 304.628 274.192L304.049 273.57C303.848 273.353 303.663 273.105 303.454 272.865C303.036 272.385 302.65 271.83 302.224 271.26C301.344 269.992 300.575 268.66 299.924 267.277C299.296 265.884 298.785 264.447 298.397 262.98C298.244 262.298 298.083 261.652 297.995 261.037C297.946 260.73 297.89 260.437 297.858 260.152C297.826 259.867 297.802 259.597 297.769 259.335C297.705 258.81 297.705 258.33 297.689 257.918C297.669 257.56 297.669 257.202 297.689 256.845V256.17C297.658 256.164 297.63 256.148 297.61 256.124C297.591 256.1 297.582 256.071 297.585 256.041C297.588 256.011 297.603 255.983 297.627 255.963C297.65 255.943 297.681 255.932 297.713 255.932C297.745 255.932 297.776 255.943 297.8 255.963C297.823 255.983 297.838 256.011 297.841 256.041C297.844 256.071 297.835 256.1 297.816 256.124C297.797 256.148 297.769 256.164 297.737 256.17C297.737 256.342 297.737 256.567 297.737 256.845C297.737 257.122 297.737 257.498 297.737 257.91C297.737 258.323 297.777 258.803 297.858 259.32C297.858 259.583 297.922 259.853 297.954 260.138C297.987 260.423 298.051 260.707 298.099 261.015C298.196 261.622 298.364 262.26 298.525 262.935C298.912 264.391 299.423 265.815 300.053 267.195C300.698 268.57 301.456 269.896 302.32 271.162C302.738 271.732 303.124 272.288 303.526 272.768C303.727 273.008 303.912 273.255 304.113 273.473L304.676 274.103C305.03 274.508 305.391 274.852 305.697 275.145C306.002 275.437 306.268 275.7 306.501 275.895L307.023 276.367C307.168 276.495 307.233 276.555 307.224 276.562Z" fill="white"/>
<path d="M318.151 256.897C317.858 256.85 317.582 256.737 317.347 256.567C316.754 256.191 316.306 255.647 316.068 255.015C315.838 254.378 315.838 253.687 316.068 253.05C316.131 252.77 316.273 252.512 316.479 252.3C316.479 252.3 316.342 252.585 316.213 253.05C316.04 253.663 316.062 254.309 316.278 254.91C316.507 255.504 316.915 256.025 317.451 256.41C317.853 256.755 318.159 256.867 318.151 256.897Z" fill="white"/>
<path d="M319.662 248.19C319.606 248.19 319.421 247.883 319.252 247.44C319.083 246.998 318.979 246.69 319.035 246.645C319.092 246.6 319.268 246.952 319.445 247.395C319.622 247.837 319.719 248.175 319.662 248.19Z" fill="white"/>
<path d="M318.167 237.188C317.96 237.277 317.745 237.347 317.524 237.397C317.264 237.461 317.009 237.539 316.76 237.63C316.462 237.727 316.125 237.825 315.763 237.975C315.401 238.125 314.999 238.26 314.589 238.447C314.179 238.635 313.729 238.837 313.271 239.062C312.286 239.572 311.342 240.148 310.449 240.787C309.561 241.432 308.723 242.134 307.94 242.888C307.586 243.248 307.249 243.578 306.959 243.915C306.67 244.253 306.396 244.56 306.155 244.86C305.914 245.16 305.721 245.422 305.544 245.662C305.367 245.902 305.223 246.113 305.11 246.293C304.999 246.48 304.869 246.659 304.724 246.825C304.812 246.628 304.917 246.437 305.038 246.255C305.161 246.031 305.298 245.813 305.448 245.603C305.616 245.363 305.801 245.07 306.035 244.777C306.268 244.485 306.517 244.147 306.839 243.81C307.16 243.472 307.466 243.128 307.811 242.768C308.593 241.996 309.437 241.281 310.336 240.63C311.243 239.99 312.2 239.414 313.198 238.905C313.665 238.688 314.099 238.47 314.533 238.298C314.967 238.125 315.337 237.975 315.731 237.84C316.125 237.705 316.438 237.615 316.736 237.525C317.033 237.435 317.299 237.367 317.54 237.322C317.745 237.263 317.955 237.218 318.167 237.188Z" fill="white"/>
<path d="M337.527 279.12C337.4 279.229 337.259 279.325 337.109 279.405C336.718 279.651 336.313 279.876 335.895 280.08C333.147 281.464 330.092 282.234 326.971 282.33C326.376 282.33 325.893 282.33 325.556 282.33C325.383 282.329 325.211 282.314 325.041 282.285C325.212 282.268 325.385 282.268 325.556 282.285C325.893 282.285 326.36 282.285 326.963 282.24C328.503 282.146 330.03 281.912 331.521 281.543C333.009 281.162 334.453 280.644 335.831 279.997C336.353 279.75 336.78 279.533 337.061 279.383C337.206 279.28 337.362 279.192 337.527 279.12Z" fill="white"/>
<path d="M297.528 292.74H356.896V281.573H297.528V292.74Z" fill="#AC7F6C"/>
<path d="M353.077 281.76C352.94 281.76 352.819 284.19 352.819 287.175C352.819 290.16 352.94 292.59 353.077 292.59C353.213 292.59 353.334 290.167 353.334 287.175C353.334 284.182 353.221 281.76 353.077 281.76Z" fill="#263238"/>
<path d="M347.577 281.76C347.433 281.76 347.32 284.19 347.32 287.175C347.32 290.16 347.433 292.59 347.577 292.59C347.722 292.59 347.835 290.167 347.835 287.175C347.835 284.182 347.714 281.76 347.577 281.76Z" fill="#263238"/>
<path d="M342.134 281.76C341.989 281.76 341.877 284.19 341.877 287.175C341.877 290.16 341.989 292.59 342.134 292.59C342.279 292.59 342.391 290.167 342.391 287.175C342.391 284.182 342.279 281.76 342.134 281.76Z" fill="#263238"/>
<path d="M336.723 281.76C336.579 281.76 336.466 284.19 336.466 287.175C336.466 290.16 336.579 292.59 336.723 292.59C336.868 292.59 336.981 290.167 336.981 287.175C336.981 284.182 336.876 281.76 336.723 281.76Z" fill="#263238"/>
<path d="M331.312 281.76C331.168 281.76 331.055 284.19 331.055 287.175C331.055 290.16 331.168 292.59 331.312 292.59C331.457 292.59 331.57 290.167 331.57 287.175C331.57 284.182 331.457 281.76 331.312 281.76Z" fill="#263238"/>
<path d="M325.901 281.76C325.757 281.76 325.644 284.19 325.644 287.175C325.644 290.16 325.757 292.59 325.901 292.59C326.046 292.59 326.159 290.167 326.159 287.175C326.159 284.182 326.046 281.76 325.901 281.76Z" fill="#263238"/>
<path d="M320.491 281.76C320.346 281.76 320.233 284.19 320.233 287.175C320.233 290.16 320.346 292.59 320.491 292.59C320.635 292.59 320.748 290.167 320.748 287.175C320.748 284.182 320.635 281.76 320.491 281.76Z" fill="#263238"/>
<path d="M315.08 281.76C314.935 281.76 314.822 284.19 314.822 287.175C314.822 290.16 314.935 292.59 315.08 292.59C315.224 292.59 315.337 290.167 315.337 287.175C315.337 284.182 315.224 281.76 315.08 281.76Z" fill="#263238"/>
<path d="M309.669 281.76C309.524 281.76 309.411 284.19 309.411 287.175C309.411 290.16 309.524 292.59 309.669 292.59C309.813 292.59 309.926 290.167 309.926 287.175C309.926 284.182 309.813 281.76 309.669 281.76Z" fill="#263238"/>
<path d="M304.258 281.76C304.113 281.76 304 284.19 304 287.175C304 290.16 304.113 292.59 304.258 292.59C304.402 292.59 304.515 290.167 304.515 287.175C304.515 284.182 304.402 281.76 304.258 281.76Z" fill="#263238"/>
<path d="M298.847 281.76C298.702 281.76 298.59 284.19 298.59 287.175C298.59 290.16 298.702 292.59 298.847 292.59C298.992 292.59 299.104 290.167 299.104 287.175C299.104 284.182 298.984 281.76 298.847 281.76Z" fill="#263238"/>
<g opacity="0.3">
<path d="M355.939 281.588C336.87 283.969 317.546 283.969 298.477 281.588H355.939Z" fill="black"/>
</g>
<path d="M297.48 281.61C297.48 281.745 310.746 281.85 327.107 281.85C343.469 281.85 356.743 281.745 356.743 281.61C356.743 281.475 343.477 281.37 327.107 281.37C310.738 281.37 297.48 281.475 297.48 281.61Z" fill="#263238"/>
<path d="M296.194 303.72H355.561V292.553H296.194V303.72Z" fill="#AC7F6C"/>
<path d="M351.75 292.747C351.605 292.747 351.493 295.17 351.493 298.155C351.493 301.14 351.605 303.57 351.75 303.57C351.895 303.57 352.007 301.148 352.007 298.155C352.007 295.163 351.887 292.747 351.75 292.747Z" fill="#263238"/>
<path d="M346.243 292.747C346.098 292.747 345.985 295.17 345.985 298.155C345.985 301.14 346.098 303.57 346.243 303.57C346.387 303.57 346.5 301.148 346.5 298.155C346.5 295.163 346.387 292.747 346.243 292.747Z" fill="#263238"/>
<path d="M340.8 292.747C340.663 292.747 340.542 295.17 340.542 298.155C340.542 301.14 340.663 303.57 340.8 303.57C340.936 303.57 341.057 301.148 341.057 298.155C341.057 295.163 340.944 292.747 340.8 292.747Z" fill="#263238"/>
<path d="M335.389 292.747C335.244 292.747 335.131 295.17 335.131 298.155C335.131 301.14 335.244 303.57 335.389 303.57C335.533 303.57 335.646 301.148 335.646 298.155C335.646 295.163 335.533 292.747 335.389 292.747Z" fill="#263238"/>
<path d="M329.978 292.747C329.833 292.747 329.72 295.17 329.72 298.155C329.72 301.14 329.833 303.57 329.978 303.57C330.122 303.57 330.235 301.148 330.235 298.155C330.235 295.163 330.122 292.747 329.978 292.747Z" fill="#263238"/>
<path d="M324.567 292.747C324.422 292.747 324.309 295.17 324.309 298.155C324.309 301.14 324.422 303.57 324.567 303.57C324.711 303.57 324.824 301.148 324.824 298.155C324.824 295.163 324.711 292.747 324.567 292.747Z" fill="#263238"/>
<path d="M319.188 292.747C319.043 292.747 318.931 295.17 318.931 298.155C318.931 301.14 319.043 303.57 319.188 303.57C319.333 303.57 319.445 301.148 319.445 298.155C319.445 295.163 319.301 292.747 319.188 292.747Z" fill="#263238"/>
<path d="M313.745 292.747C313.6 292.747 313.488 295.17 313.488 298.155C313.488 301.14 313.6 303.57 313.745 303.57C313.89 303.57 314.002 301.148 314.002 298.155C314.002 295.163 313.89 292.747 313.745 292.747Z" fill="#263238"/>
<path d="M308.334 292.747C308.189 292.747 308.077 295.17 308.077 298.155C308.077 301.14 308.189 303.57 308.334 303.57C308.479 303.57 308.591 301.148 308.591 298.155C308.591 295.163 308.479 292.747 308.334 292.747Z" fill="#263238"/>
<path d="M302.923 292.747C302.778 292.747 302.666 295.17 302.666 298.155C302.666 301.14 302.778 303.57 302.923 303.57C303.068 303.57 303.18 301.148 303.18 298.155C303.18 295.163 303.108 292.747 302.923 292.747Z" fill="#263238"/>
<path d="M297.48 292.747C297.335 292.747 297.223 295.17 297.223 298.155C297.223 301.14 297.335 303.57 297.48 303.57C297.625 303.57 297.737 301.148 297.737 298.155C297.737 295.163 297.657 292.747 297.48 292.747Z" fill="#263238"/>
<g opacity="0.3">
<path d="M354.612 292.567C335.541 294.949 316.214 294.949 297.142 292.567H354.612Z" fill="black"/>
</g>
<path d="M296.178 292.59C296.178 292.725 309.444 292.83 325.813 292.83C342.182 292.83 355.44 292.725 355.44 292.59C355.44 292.455 342.182 292.35 325.813 292.35C309.444 292.35 296.178 292.5 296.178 292.59Z" fill="#263238"/>
<path d="M301.838 314.527H361.205V303.36H301.838V314.527Z" fill="#AC7F6C"/>
<path d="M357.386 303.548C357.241 303.548 357.129 305.978 357.129 308.963C357.129 311.948 357.241 314.378 357.386 314.378C357.531 314.378 357.643 311.955 357.643 308.963C357.643 305.97 357.523 303.548 357.386 303.548Z" fill="#263238"/>
<path d="M351.879 303.548C351.734 303.548 351.621 305.978 351.621 308.963C351.621 311.948 351.734 314.378 351.879 314.378C352.023 314.378 352.136 311.955 352.136 308.963C352.136 305.97 352.023 303.548 351.879 303.548Z" fill="#263238"/>
<path d="M346.436 303.548C346.299 303.548 346.178 305.978 346.178 308.963C346.178 311.948 346.299 314.378 346.436 314.378C346.572 314.378 346.693 311.955 346.693 308.963C346.693 305.97 346.58 303.548 346.436 303.548Z" fill="#263238"/>
<path d="M341.025 303.548C340.888 303.548 340.767 305.978 340.767 308.963C340.767 311.948 340.888 314.378 341.025 314.378C341.161 314.378 341.282 311.955 341.282 308.963C341.282 305.97 341.169 303.548 341.025 303.548Z" fill="#263238"/>
<path d="M335.614 303.548C335.477 303.548 335.356 305.978 335.356 308.963C335.356 311.948 335.477 314.378 335.614 314.378C335.75 314.378 335.871 311.955 335.871 308.963C335.871 305.97 335.758 303.548 335.614 303.548Z" fill="#263238"/>
<path d="M330.203 303.548C330.066 303.548 329.945 305.978 329.945 308.963C329.945 311.948 330.066 314.378 330.203 314.378C330.339 314.378 330.46 311.955 330.46 308.963C330.46 305.97 330.348 303.548 330.203 303.548Z" fill="#263238"/>
<path d="M324.816 303.548C324.671 303.548 324.559 305.978 324.559 308.963C324.559 311.948 324.671 314.378 324.816 314.378C324.961 314.378 325.073 311.955 325.073 308.963C325.073 305.97 324.937 303.548 324.816 303.548Z" fill="#263238"/>
<path d="M319.381 303.548C319.236 303.548 319.124 305.978 319.124 308.963C319.124 311.948 319.236 314.378 319.381 314.378C319.526 314.378 319.638 311.955 319.638 308.963C319.638 305.97 319.526 303.548 319.381 303.548Z" fill="#263238"/>
<path d="M313.97 303.548C313.825 303.548 313.713 305.978 313.713 308.963C313.713 311.948 313.825 314.378 313.97 314.378C314.115 314.378 314.227 311.955 314.227 308.963C314.227 305.97 314.115 303.548 313.97 303.548Z" fill="#263238"/>
<path d="M308.559 303.548C308.414 303.548 308.302 305.978 308.302 308.963C308.302 311.948 308.414 314.378 308.559 314.378C308.704 314.378 308.816 311.955 308.816 308.963C308.816 305.97 308.736 303.548 308.559 303.548Z" fill="#263238"/>
<path d="M303.148 303.548C303.003 303.548 302.891 305.978 302.891 308.963C302.891 311.948 303.003 314.378 303.148 314.378C303.293 314.378 303.405 311.955 303.405 308.963C303.405 305.97 303.293 303.548 303.148 303.548Z" fill="#263238"/>
<g opacity="0.3">
<path d="M360.248 303.375C341.177 305.756 321.85 305.756 302.778 303.375H360.248Z" fill="black"/>
</g>
<path d="M301.814 303.398C301.814 303.533 315.08 303.638 331.449 303.638C347.818 303.638 361.076 303.533 361.076 303.398C361.076 303.263 347.818 303.158 331.449 303.158C315.08 303.158 301.814 303.27 301.814 303.398Z" fill="#263238"/>
<path d="M294.883 325.185H354.25V314.445H294.883V325.185Z" fill="#AC7F6C"/>
<path d="M350.431 314.633C350.287 314.633 350.174 316.958 350.174 319.838C350.174 322.718 350.287 325.043 350.431 325.043C350.576 325.043 350.689 322.71 350.689 319.838C350.689 316.965 350.544 314.633 350.431 314.633Z" fill="#263238"/>
<path d="M344.916 314.633C344.771 314.633 344.659 316.958 344.659 319.838C344.659 322.718 344.771 325.043 344.916 325.043C345.061 325.043 345.173 322.71 345.173 319.838C345.173 316.965 345.069 314.633 344.916 314.633Z" fill="#263238"/>
<path d="M339.481 314.633C339.344 314.633 339.224 316.958 339.224 319.838C339.224 322.718 339.344 325.043 339.481 325.043C339.618 325.043 339.738 322.71 339.738 319.838C339.738 316.965 339.626 314.633 339.481 314.633Z" fill="#263238"/>
<path d="M334.07 314.633C333.933 314.633 333.813 316.958 333.813 319.838C333.813 322.718 333.933 325.043 334.07 325.043C334.207 325.043 334.327 322.71 334.327 319.838C334.327 316.965 334.215 314.633 334.07 314.633Z" fill="#263238"/>
<path d="M328.659 314.633C328.522 314.633 328.402 316.958 328.402 319.838C328.402 322.718 328.522 325.043 328.659 325.043C328.796 325.043 328.916 322.71 328.916 319.838C328.916 316.965 328.836 314.633 328.659 314.633Z" fill="#263238"/>
<path d="M323.248 314.633C323.103 314.633 322.991 316.958 322.991 319.838C322.991 322.718 323.103 325.043 323.248 325.043C323.393 325.043 323.505 322.71 323.505 319.838C323.505 316.965 323.393 314.633 323.248 314.633Z" fill="#263238"/>
<path d="M317.837 314.633C317.693 314.633 317.58 316.958 317.58 319.838C317.58 322.718 317.693 325.043 317.837 325.043C317.982 325.043 318.095 322.71 318.095 319.838C318.095 316.965 317.982 314.633 317.837 314.633Z" fill="#263238"/>
<path d="M312.426 314.633C312.282 314.633 312.169 316.958 312.169 319.838C312.169 322.718 312.282 325.043 312.426 325.043C312.571 325.043 312.684 322.71 312.684 319.838C312.684 316.965 312.571 314.633 312.426 314.633Z" fill="#263238"/>
<path d="M307.015 314.633C306.871 314.633 306.758 316.958 306.758 319.838C306.758 322.718 306.871 325.043 307.015 325.043C307.16 325.043 307.273 322.71 307.273 319.838C307.273 316.965 307.128 314.633 307.015 314.633Z" fill="#263238"/>
<path d="M301.605 314.633C301.46 314.633 301.347 316.958 301.347 319.838C301.347 322.718 301.46 325.043 301.605 325.043C301.749 325.043 301.862 322.71 301.862 319.838C301.862 316.965 301.749 314.633 301.605 314.633Z" fill="#263238"/>
<path d="M296.194 314.633C296.049 314.633 295.936 316.958 295.936 319.838C295.936 322.718 296.049 325.043 296.194 325.043C296.338 325.043 296.451 322.71 296.451 319.838C296.451 316.965 296.338 314.633 296.194 314.633Z" fill="#263238"/>
<g opacity="0.3">
<path d="M353.294 314.46C334.276 317.505 314.841 317.505 295.824 314.46H353.294Z" fill="black"/>
</g>
<path d="M294.859 314.482C294.859 314.617 308.125 314.723 324.494 314.723C340.864 314.723 354.122 314.617 354.122 314.482C354.122 314.347 340.896 314.25 324.494 314.25C308.093 314.25 294.859 314.347 294.859 314.482Z" fill="#263238"/>
<path d="M298.694 335.932H358.061V325.192H298.694V335.932Z" fill="#AC7F6C"/>
<path d="M354.242 325.372C354.106 325.372 353.985 327.705 353.985 330.585C353.985 333.465 354.106 335.79 354.242 335.79C354.379 335.79 354.508 333.458 354.508 330.585C354.508 327.713 354.387 325.372 354.242 325.372Z" fill="#263238"/>
<path d="M348.743 325.372C348.598 325.372 348.486 327.705 348.486 330.585C348.486 333.465 348.598 335.79 348.743 335.79C348.888 335.79 349 333.458 349 330.585C349 327.713 348.88 325.372 348.743 325.372Z" fill="#263238"/>
<path d="M343.308 325.372C343.163 325.372 343.051 327.705 343.051 330.585C343.051 333.465 343.163 335.79 343.308 335.79C343.453 335.79 343.565 333.458 343.565 330.585C343.565 327.713 343.445 325.372 343.308 325.372Z" fill="#263238"/>
<path d="M337.889 325.372C337.744 325.372 337.632 327.705 337.632 330.585C337.632 333.465 337.744 335.79 337.889 335.79C338.034 335.79 338.146 333.458 338.146 330.585C338.146 327.713 338.034 325.372 337.889 325.372Z" fill="#263238"/>
<path d="M332.478 325.372C332.333 325.372 332.221 327.705 332.221 330.585C332.221 333.465 332.333 335.79 332.478 335.79C332.623 335.79 332.735 333.458 332.735 330.585C332.735 327.713 332.623 325.372 332.478 325.372Z" fill="#263238"/>
<path d="M327.067 325.372C326.922 325.372 326.81 327.705 326.81 330.585C326.81 333.465 326.922 335.79 327.067 335.79C327.212 335.79 327.324 333.458 327.324 330.585C327.324 327.713 327.228 325.372 327.067 325.372Z" fill="#263238"/>
<path d="M321.656 325.372C321.512 325.372 321.399 327.705 321.399 330.585C321.399 333.465 321.512 335.79 321.656 335.79C321.801 335.79 321.914 333.458 321.914 330.585C321.914 327.713 321.801 325.372 321.656 325.372Z" fill="#263238"/>
<path d="M316.245 325.372C316.101 325.372 315.988 327.705 315.988 330.585C315.988 333.465 316.101 335.79 316.245 335.79C316.39 335.79 316.503 333.458 316.503 330.585C316.503 327.713 316.39 325.372 316.245 325.372Z" fill="#263238"/>
<path d="M310.834 325.372C310.69 325.372 310.577 327.705 310.577 330.585C310.577 333.465 310.69 335.79 310.834 335.79C310.979 335.79 311.092 333.458 311.092 330.585C311.092 327.713 310.979 325.372 310.834 325.372Z" fill="#263238"/>
<path d="M305.424 325.372C305.279 325.372 305.166 327.705 305.166 330.585C305.166 333.465 305.279 335.79 305.424 335.79C305.568 335.79 305.681 333.458 305.681 330.585C305.681 327.713 305.568 325.372 305.424 325.372Z" fill="#263238"/>
<path d="M300.013 325.372C299.868 325.372 299.755 327.705 299.755 330.585C299.755 333.465 299.868 335.79 300.013 335.79C300.157 335.79 300.27 333.458 300.27 330.585C300.27 327.713 300.149 325.372 300.013 325.372Z" fill="#263238"/>
<g opacity="0.3">
<path d="M357.105 325.207C338.129 328.654 318.619 328.654 299.643 325.207H357.105Z" fill="black"/>
</g>
<path d="M298.678 325.23C298.678 325.365 311.944 325.47 328.305 325.47C344.667 325.47 357.941 325.365 357.941 325.23C357.941 325.095 344.675 324.99 328.305 324.99C311.936 324.99 298.678 325.095 298.678 325.23Z" fill="#263238"/>
<path d="M295.301 346.53H354.669V335.79H295.301V346.53Z" fill="#AC7F6C"/>
<path d="M350.858 336C350.713 336 350.6 338.333 350.6 341.205C350.6 344.078 350.713 346.455 350.858 346.455C351.002 346.455 351.115 344.123 351.115 341.205C351.115 338.288 350.994 336 350.858 336Z" fill="#263238"/>
<path d="M345.35 336C345.205 336 345.093 338.333 345.093 341.205C345.093 344.078 345.205 346.455 345.35 346.455C345.495 346.455 345.607 344.123 345.607 341.205C345.607 338.288 345.495 336 345.35 336Z" fill="#263238"/>
<path d="M339.907 336C339.77 336 339.65 338.333 339.65 341.205C339.65 344.078 339.77 346.455 339.907 346.455C340.044 346.455 340.164 344.123 340.164 341.205C340.164 338.288 340.092 336 339.907 336Z" fill="#263238"/>
<path d="M334.464 336C334.319 336 334.207 338.333 334.207 341.205C334.207 344.078 334.319 346.455 334.464 346.455C334.609 346.455 334.721 344.123 334.721 341.205C334.721 338.288 334.641 336 334.464 336Z" fill="#263238"/>
<path d="M329.085 336C328.941 336 328.828 338.333 328.828 341.205C328.828 344.078 328.941 346.455 329.085 346.455C329.23 346.455 329.343 344.123 329.343 341.205C329.343 338.288 329.23 336 329.085 336Z" fill="#263238"/>
<path d="M323.674 336C323.53 336 323.417 338.333 323.417 341.205C323.417 344.078 323.53 346.455 323.674 346.455C323.819 346.455 323.932 344.123 323.932 341.205C323.932 338.288 323.819 336 323.674 336Z" fill="#263238"/>
<path d="M318.263 336C318.119 336 318.006 338.333 318.006 341.205C318.006 344.078 318.119 346.455 318.263 346.455C318.408 346.455 318.521 344.123 318.521 341.205C318.521 338.288 318.384 336 318.263 336Z" fill="#263238"/>
<path d="M312.853 336C312.708 336 312.595 338.333 312.595 341.205C312.595 344.078 312.708 346.455 312.853 346.455C312.997 346.455 313.11 344.123 313.11 341.205C313.11 338.288 312.997 336 312.853 336Z" fill="#263238"/>
<path d="M307.442 336C307.297 336 307.184 338.333 307.184 341.205C307.184 344.078 307.297 346.455 307.442 346.455C307.586 346.455 307.699 344.123 307.699 341.205C307.699 338.288 307.586 336 307.442 336Z" fill="#263238"/>
<path d="M302.031 336C301.886 336 301.773 338.333 301.773 341.205C301.773 344.078 301.886 346.455 302.031 346.455C302.175 346.455 302.288 344.123 302.288 341.205C302.288 338.288 302.175 336 302.031 336Z" fill="#263238"/>
<path d="M296.62 336C296.475 336 296.362 338.333 296.362 341.205C296.362 344.078 296.475 346.455 296.62 346.455C296.764 346.455 296.877 344.123 296.877 341.205C296.877 338.288 296.764 336 296.62 336Z" fill="#263238"/>
<g opacity="0.3">
<path d="M353.76 335.805C334.742 338.85 315.308 338.85 296.29 335.805H353.76Z" fill="black"/>
</g>
<path d="M295.285 335.827C295.285 335.955 308.551 336.067 324.921 336.067C341.29 336.067 354.548 335.955 354.548 335.827C354.548 335.7 341.282 335.588 324.921 335.588C308.559 335.588 295.285 335.692 295.285 335.827Z" fill="#263238"/>
<path d="M354.669 346.5C354.669 346.5 354.669 346.44 354.669 346.32C354.669 346.2 354.669 345.998 354.669 345.78C354.669 345.278 354.669 344.58 354.669 343.688C354.669 341.842 354.628 339.188 354.604 335.91V335.79H354.733H358.005L357.868 335.925C357.868 332.782 357.868 329.175 357.868 325.178L358.045 325.343H354.025V325.17C354.025 321.847 354.025 318.248 354.025 314.513V314.332H361.173L360.98 314.513C360.98 310.538 360.98 306.72 360.98 303.135L361.157 303.308H355.352V303.143C355.352 299.258 355.352 295.747 355.352 292.732V292.598H356.96L356.831 292.725C356.831 289.26 356.831 286.485 356.831 284.55C356.831 283.612 356.831 282.878 356.831 282.353C356.831 282.113 356.831 281.932 356.831 281.782C356.824 281.718 356.824 281.652 356.831 281.588C356.841 281.652 356.841 281.718 356.831 281.782C356.831 281.925 356.831 282.113 356.831 282.353C356.831 282.878 356.831 283.605 356.888 284.543C356.888 286.485 356.976 289.26 357.04 292.718V292.845H355.432L355.569 292.718C355.569 295.718 355.569 299.243 355.609 303.128L355.432 302.97H361.06H361.245V303.143C361.245 306.728 361.245 310.545 361.245 314.52V314.7H354.09L354.291 314.52C354.291 318.27 354.291 321.855 354.291 325.178L354.106 325.005H358.126V325.17C358.126 329.145 358.126 332.775 358.126 335.918V336.053H354.709L354.837 335.933C354.837 339.225 354.797 341.865 354.781 343.71C354.781 344.603 354.781 345.3 354.781 345.803C354.781 346.02 354.781 346.2 354.781 346.343C354.753 346.401 354.715 346.454 354.669 346.5Z" fill="#263238"/>
<path d="M376.417 188.745C376.585 193.248 375.319 197.697 372.777 201.529C370.235 205.362 366.533 208.404 362.137 210.273C357.742 212.143 352.851 212.754 348.083 212.03C343.315 211.306 338.884 209.28 335.351 206.207C331.817 203.134 329.34 199.153 328.232 194.767C327.124 190.381 327.435 185.787 329.126 181.566C330.816 177.345 333.811 173.686 337.731 171.052C341.65 168.419 346.319 166.928 351.147 166.77C357.621 166.559 363.921 168.756 368.659 172.877C373.398 176.998 376.188 182.705 376.417 188.745Z" fill="#AC7F6C"/>
<g opacity="0.1">
<path d="M351.147 166.77C344.673 166.983 338.555 169.586 334.139 174.007C329.723 178.428 327.37 184.304 327.598 190.342C327.598 190.342 344.771 190.5 348.655 183.915C352.538 177.33 351.147 166.77 351.147 166.77Z" fill="white"/>
</g>
<path d="M370.162 188.587C370.29 192.01 369.327 195.392 367.395 198.304C365.463 201.216 362.649 203.529 359.308 204.949C355.968 206.37 352.251 206.834 348.627 206.284C345.003 205.734 341.636 204.194 338.95 201.859C336.265 199.524 334.382 196.498 333.539 193.165C332.697 189.831 332.933 186.34 334.218 183.131C335.503 179.923 337.779 177.142 340.758 175.14C343.737 173.139 347.285 172.006 350.954 171.885C353.391 171.805 355.821 172.173 358.105 172.969C360.39 173.765 362.483 174.973 364.267 176.524C366.051 178.076 367.489 179.939 368.501 182.009C369.512 184.079 370.077 186.314 370.162 188.587Z" fill="#AC7F6C"/>
<g opacity="0.2">
<path d="M370.162 188.587C370.29 192.01 369.327 195.392 367.395 198.304C365.463 201.216 362.649 203.529 359.308 204.949C355.968 206.37 352.251 206.834 348.627 206.284C345.003 205.734 341.636 204.194 338.95 201.859C336.265 199.524 334.382 196.498 333.539 193.165C332.697 189.831 332.933 186.34 334.218 183.131C335.503 179.923 337.779 177.142 340.758 175.14C343.737 173.139 347.285 172.006 350.954 171.885C353.391 171.805 355.821 172.173 358.105 172.969C360.39 173.765 362.483 174.973 364.267 176.524C366.051 178.076 367.489 179.939 368.501 182.009C369.512 184.079 370.077 186.314 370.162 188.587Z" fill="black"/>
</g>
<path d="M370.708 189.292C370.83 192.669 369.876 196.003 367.967 198.874C366.058 201.744 363.279 204.023 359.983 205.421C356.686 206.819 353.019 207.273 349.445 206.728C345.871 206.182 342.55 204.66 339.904 202.354C337.257 200.049 335.402 197.063 334.574 193.774C333.746 190.485 333.981 187.042 335.251 183.878C336.52 180.714 338.767 177.972 341.707 175.999C344.646 174.026 348.147 172.91 351.766 172.792C354.172 172.714 356.57 173.079 358.824 173.866C361.079 174.654 363.144 175.847 364.904 177.38C366.663 178.912 368.081 180.753 369.077 182.797C370.073 184.841 370.627 187.048 370.708 189.292Z" fill="#AC7F6C"/>
<g opacity="0.2">
<path d="M370.708 189.292C370.83 192.669 369.876 196.003 367.967 198.874C366.058 201.744 363.279 204.023 359.983 205.421C356.686 206.819 353.019 207.273 349.445 206.728C345.871 206.182 342.55 204.66 339.904 202.354C337.257 200.049 335.402 197.063 334.574 193.774C333.746 190.485 333.981 187.042 335.251 183.878C336.52 180.714 338.767 177.972 341.707 175.999C344.646 174.026 348.147 172.91 351.766 172.792C354.172 172.714 356.57 173.079 358.824 173.866C361.079 174.654 363.144 175.847 364.904 177.38C366.663 178.912 368.081 180.753 369.077 182.797C370.073 184.841 370.627 187.048 370.708 189.292Z" fill="white"/>
</g>
<path d="M353.077 188.385L352.916 184.02C353.774 184.087 354.618 184.263 355.424 184.545C355.842 184.725 356.24 184.941 356.614 185.19L356.67 185.055L357.338 183.458L357.491 183.09L356.622 182.295L356.228 182.482C355.159 181.995 353.992 181.721 352.803 181.68L352.715 179.272L351.911 178.695V179.303H350.809L350.898 181.755C347.296 182.197 345.648 184.177 345.728 186.382C345.841 189.382 348.638 190.08 351.235 190.583L351.396 194.91C349.707 194.84 348.075 194.319 346.693 193.41L345.728 195.66C347.437 196.725 349.454 197.279 351.509 197.25L351.573 199.065L350.673 199.11L351.597 199.657L353.503 199.59L353.406 197.168C357.04 196.703 358.705 194.737 358.624 192.532C358.512 189.555 355.673 188.887 353.077 188.385ZM351.155 187.995C349.796 187.673 348.783 187.245 348.743 186.188C348.703 185.13 349.378 184.433 351.01 184.14L351.155 187.995ZM353.318 194.835L353.173 191.01C354.58 191.332 355.625 191.76 355.665 192.855C355.698 193.785 355.006 194.542 353.318 194.835Z" fill="#AC7F6C"/>
<g opacity="0.3">
<path d="M353.077 188.385L352.916 184.02C353.774 184.087 354.618 184.263 355.424 184.545C355.842 184.725 356.24 184.941 356.614 185.19L356.67 185.055L357.338 183.458L357.491 183.09L356.622 182.295L356.228 182.482C355.159 181.995 353.992 181.721 352.803 181.68L352.715 179.272L351.911 178.695V179.303H350.809L350.898 181.755C347.296 182.197 345.648 184.177 345.728 186.382C345.841 189.382 348.638 190.08 351.235 190.583L351.396 194.91C349.707 194.84 348.075 194.319 346.693 193.41L345.728 195.66C347.437 196.725 349.454 197.279 351.509 197.25L351.573 199.065L350.673 199.11L351.597 199.657L353.503 199.59L353.406 197.168C357.04 196.703 358.705 194.737 358.624 192.532C358.512 189.555 355.673 188.887 353.077 188.385ZM351.155 187.995C349.796 187.673 348.783 187.245 348.743 186.188C348.703 185.13 349.378 184.433 351.01 184.14L351.155 187.995ZM353.318 194.835L353.173 191.01C354.58 191.332 355.625 191.76 355.665 192.855C355.698 193.785 355.006 194.542 353.318 194.835Z" fill="black"/>
</g>
<path d="M352.602 196.628L352.691 199.058L350.785 199.117L350.697 196.718C348.648 196.727 346.644 196.166 344.94 195.105L345.905 192.855C347.291 193.757 348.921 194.277 350.608 194.355L350.448 190.02C347.851 189.525 345.061 188.835 344.948 185.828C344.86 183.578 346.508 181.635 350.118 181.192L350.021 178.74L351.927 178.68L352.015 181.087C353.681 181.099 355.317 181.498 356.775 182.25L355.907 184.5C354.731 183.908 353.436 183.551 352.104 183.45L352.273 187.822C354.87 188.325 357.708 188.993 357.82 192C357.901 194.205 356.228 196.163 352.602 196.628ZM350.351 187.425L350.206 183.57C348.598 183.862 347.899 184.665 347.931 185.618C347.963 186.57 348.992 187.102 350.351 187.425ZM354.853 192.285C354.813 191.228 353.776 190.785 352.369 190.44L352.514 194.272C354.194 193.98 354.886 193.215 354.853 192.285Z" fill="#AC7F6C"/>
<path d="M352.715 207.15H352.868L353.302 207.105L354.017 207.045C354.344 207.024 354.67 206.982 354.99 206.918L356.196 206.7C356.428 206.662 356.657 206.607 356.88 206.535L357.603 206.332C357.875 206.269 358.144 206.191 358.407 206.1L359.211 205.8C359.484 205.687 359.774 205.598 360.015 205.463L360.875 205.043C362.138 204.403 363.322 203.636 364.405 202.755L365.249 202.005C365.394 201.877 365.539 201.75 365.675 201.615L366.077 201.173C366.335 200.88 366.624 200.587 366.881 200.272C367.139 199.957 367.372 199.62 367.621 199.29L367.806 199.035C367.867 198.95 367.923 198.863 367.975 198.772L368.296 198.232L368.626 197.685C368.735 197.498 368.832 197.305 368.915 197.107C369.092 196.717 369.293 196.357 369.462 195.93L369.896 194.678C371.009 191.151 370.868 187.383 369.494 183.937C369.317 183.522 369.141 183.118 368.964 182.722C368.771 182.325 368.538 181.973 368.328 181.575C368.231 181.384 368.121 181.198 367.999 181.02C367.878 180.847 367.758 180.667 367.629 180.495L367.267 179.977L367.082 179.722L366.881 179.49L366.077 178.553C365.804 178.253 365.498 177.982 365.209 177.705L364.783 177.292L364.325 176.925L363.424 176.175C362.276 175.367 361.036 174.68 359.726 174.127L358.849 173.76C358.56 173.647 358.262 173.572 357.981 173.482L357.177 173.227C356.912 173.145 356.638 173.107 356.373 173.047L355.633 172.897C355.407 172.841 355.175 172.801 354.942 172.777L353.72 172.635C353.397 172.595 353.072 172.575 352.747 172.575H352.023H351.581H351.428H352.747C353.074 172.567 353.402 172.579 353.728 172.612L354.958 172.74C355.191 172.764 355.422 172.802 355.649 172.852L356.397 173.002C356.646 173.062 356.92 173.092 357.201 173.175L358.005 173.422C358.287 173.52 358.584 173.588 358.873 173.7L359.766 174.06C361.087 174.612 362.338 175.299 363.496 176.107L364.413 176.857C364.566 176.977 364.727 177.097 364.871 177.225L365.305 177.638C365.595 177.915 365.908 178.185 366.182 178.485L366.986 179.43L367.195 179.67L367.38 179.925C367.5 180.097 367.629 180.27 367.75 180.45L368.127 180.975C368.256 181.147 368.345 181.35 368.457 181.537C368.666 181.912 368.899 182.287 369.1 182.685C369.301 183.082 369.454 183.502 369.639 183.915C370.301 185.65 370.686 187.467 370.781 189.307C370.829 191.152 370.579 192.992 370.041 194.767C369.896 195.187 369.744 195.607 369.599 196.02C369.454 196.432 369.229 196.823 369.044 197.213C368.959 197.412 368.862 197.608 368.755 197.798L368.425 198.345L368.095 198.892L367.926 199.162L367.734 199.41L366.994 200.407C366.737 200.722 366.447 201.015 366.19 201.307L365.788 201.75L365.354 202.147L364.493 202.897C363.4 203.783 362.202 204.551 360.924 205.185L360.063 205.605C359.782 205.733 359.484 205.822 359.211 205.935L358.407 206.235C358.144 206.323 357.875 206.398 357.603 206.46L356.871 206.662C356.647 206.727 356.419 206.78 356.188 206.82L354.974 207.022C354.65 207.08 354.322 207.115 353.993 207.128L353.278 207.18H352.835L352.715 207.15Z" fill="#263238"/>
<path d="M331.618 200.902C331.618 200.902 331.57 200.85 331.497 200.73L331.184 200.22C331.047 200.002 330.886 199.725 330.717 199.395C330.548 199.065 330.347 198.697 330.171 198.27C330.082 198.052 329.986 197.835 329.881 197.603C329.777 197.37 329.704 197.123 329.608 196.853C329.407 196.343 329.254 195.787 329.085 195.202C328.386 192.647 328.174 189.997 328.458 187.373C328.53 186.773 328.595 186.195 328.715 185.67C328.764 185.4 328.804 185.145 328.868 184.92C328.932 184.695 328.989 184.44 329.053 184.215C329.15 183.772 329.302 183.375 329.407 183.03C329.511 182.685 329.632 182.385 329.736 182.145C329.841 181.905 329.905 181.74 329.962 181.598C329.984 181.531 330.017 181.468 330.058 181.41C330.047 181.479 330.028 181.547 330.002 181.612C329.945 181.755 329.881 181.942 329.801 182.167C329.72 182.392 329.608 182.708 329.511 183.053C329.415 183.398 329.27 183.803 329.174 184.245C329.12 184.47 329.064 184.702 329.005 184.942C328.949 185.19 328.916 185.445 328.86 185.692C328.756 186.217 328.699 186.788 328.619 187.388C328.504 188.69 328.491 189.998 328.579 191.303C328.697 192.604 328.92 193.895 329.246 195.165C329.415 195.743 329.56 196.298 329.753 196.808C329.841 197.063 329.921 197.31 330.018 197.558L330.291 198.225C330.46 198.652 330.653 199.02 330.814 199.35C330.975 199.68 331.119 199.965 331.248 200.19L331.529 200.715C331.568 200.773 331.598 200.837 331.618 200.902Z" fill="white"/>
<path d="M346.596 187.605C346.372 187.49 346.181 187.325 346.042 187.125C345.665 186.658 345.459 186.09 345.455 185.505C345.461 184.921 345.667 184.353 346.042 183.885C346.182 183.681 346.376 183.513 346.604 183.397C346.604 183.397 346.395 183.593 346.146 183.953C345.816 184.412 345.64 184.952 345.64 185.505C345.64 186.058 345.816 186.598 346.146 187.058C346.395 187.41 346.62 187.582 346.596 187.605Z" fill="white"/>
<path d="M350.496 180.84C350.399 180.617 350.358 180.375 350.375 180.135C350.333 179.884 350.355 179.627 350.439 179.385C350.496 179.385 350.544 179.7 350.56 180.098C350.603 180.346 350.581 180.601 350.496 180.84Z" fill="white"/>
<path d="M352.618 171.382C352.418 171.402 352.216 171.402 352.015 171.382C351.83 171.382 351.589 171.382 351.324 171.382C351.059 171.382 350.737 171.382 350.399 171.382C350.062 171.382 349.684 171.382 349.282 171.465C348.88 171.547 348.478 171.563 348.011 171.623C347.048 171.785 346.097 172.008 345.165 172.29C344.236 172.587 343.331 172.946 342.456 173.362C342.062 173.565 341.652 173.745 341.338 173.947C341.025 174.15 340.679 174.33 340.397 174.51C340.116 174.69 339.867 174.863 339.65 175.013C339.433 175.163 339.24 175.298 339.095 175.41C338.952 175.539 338.792 175.653 338.621 175.748C338.753 175.611 338.895 175.483 339.047 175.365C339.192 175.238 339.368 175.095 339.585 174.938C339.803 174.78 340.036 174.593 340.325 174.413C340.615 174.233 340.912 174.023 341.258 173.828C341.604 173.633 341.981 173.43 342.375 173.22C343.254 172.795 344.165 172.432 345.101 172.132C346.042 171.847 347.004 171.626 347.979 171.473C348.437 171.413 348.864 171.345 349.266 171.322C349.668 171.3 350.07 171.27 350.391 171.263C350.713 171.255 351.05 171.263 351.324 171.263C351.597 171.263 351.83 171.263 352.023 171.263L352.618 171.382Z" fill="white"/>
<path d="M355.786 211.043C355.648 211.094 355.505 211.134 355.36 211.162C354.963 211.262 354.56 211.34 354.154 211.395C352.826 211.597 351.477 211.658 350.134 211.575C348.77 211.491 347.422 211.262 346.114 210.893C345.623 210.743 345.221 210.615 344.956 210.503C344.814 210.457 344.677 210.399 344.546 210.33C344.695 210.35 344.841 210.388 344.98 210.442C345.254 210.532 345.656 210.645 346.154 210.772C347.449 211.108 348.777 211.322 350.118 211.41C351.459 211.49 352.806 211.448 354.138 211.282C354.652 211.215 355.062 211.148 355.352 211.103C355.493 211.064 355.639 211.044 355.786 211.043Z" fill="white"/>
</svg>
