<svg width="102" height="130" viewBox="0 0 102 130" fill="none" xmlns="http://www.w3.org/2000/svg">
<path d="M23.3625 11.3587C23.4678 7.55122 28.1037 6.19524 28.1037 6.19524C28.1037 6.19524 27.972 5.82706 27.8227 5.29724C27.8227 5.29724 28.2441 5.83605 30.606 4.71355C32.9678 3.59105 33.7843 3.16899 33.7843 3.16899C32.2761 3.47356 30.8043 3.94322 29.3943 4.56986C29.2288 4.66923 29.0448 4.73192 28.8541 4.75386C28.6634 4.7758 28.4703 4.75651 28.2873 4.69724C28.1044 4.63798 27.9357 4.54005 27.7921 4.40982C27.6485 4.27959 27.5333 4.11995 27.4539 3.94125C27.2696 3.51919 26.9886 1.17543 28.1037 2.24405C30.0967 4.14781 41.66 -3.03619 45.5671 1.57055C49.4742 6.17729 42.459 7.37162 42.459 7.37162C35.5403 9.36518 31.3698 14.9238 29.5348 17.959C28.7797 19.1983 27.9895 18.2644 27.8403 17.8603C27.3661 16.5671 27.6559 15.9385 30.2284 12.9033C30.2284 12.9033 28.727 13.6397 27.2695 16.5851C26.8744 15.6871 26.4618 15.0226 25.8823 15.9385C25.3028 16.8545 24.5126 16.9353 24.1263 16.1092C24.0561 15.9385 23.8015 14.5197 26.0667 11.7269C25.4575 11.9449 24.9108 12.3142 24.4756 12.8017C24.0404 13.2891 23.7303 13.8794 23.5732 14.5197C23.3837 13.4779 23.313 12.4172 23.3625 11.3587Z" fill="#263238"/>
<path d="M44.3115 6.86886C44.3115 6.86886 45.3125 2.66621 39.1665 4.75855C33.0205 6.85089 36.7256 9.33836 36.7256 9.33836L44.3115 6.86886Z" fill="#B93160"/>
<path opacity="0.2" d="M44.3115 6.86886C44.3115 6.86886 45.3125 2.66621 39.1665 4.75855C33.0205 6.85089 36.7256 9.33836 36.7256 9.33836L44.3115 6.86886Z" fill="black"/>
<path d="M46.05 8.61076C46.05 8.61076 47.2616 3.53707 39.8338 6.06045C32.4059 8.58383 36.8837 11.6011 36.8837 11.6011L46.05 8.61076Z" fill="#B93160"/>
<path d="M43.3545 40.6965C43.3545 40.6965 45.4968 35.4163 35.0311 33.3958C24.5653 31.3753 22.5722 33.7909 25.6365 37.7062L29.8684 40.6965L38.4553 43.5971L42.1341 41.9717L43.3545 40.6965Z" fill="#263238"/>
<path opacity="0.2" d="M43.3545 40.6965C43.3545 40.6965 45.4968 35.4163 35.0311 33.3958C24.5653 31.3753 22.5722 33.7909 25.6365 37.7062L29.8684 40.6965L38.4553 43.5971L42.1341 41.9717L43.3545 40.6965Z" fill="black"/>
<path d="M6.259 76.4998C-9.84352 114.485 10.5963 129.311 36.0671 128.422C61.5379 127.533 107.571 113.03 101.197 94.8279C96.0784 80.1905 54.3471 86.701 41.3263 89.7991L34.7677 79.1758L6.259 76.4998Z" fill="#B93160"/>
<path opacity="0.2" d="M6.259 76.4998C-9.84352 114.485 10.5963 129.311 36.0671 128.422C61.5379 127.533 107.571 113.03 101.197 94.8279C96.0784 80.1905 54.3471 86.701 41.3263 89.7991L34.7677 79.1758L6.259 76.4998Z" fill="black"/>
<path d="M68.281 119.271L56.3753 121.867L51.5024 122.926L50.2117 117.296L55.2427 115.464L65.726 111.647L68.281 119.271Z" fill="#EEC1BB"/>
<path opacity="0.2" d="M68.281 119.271L56.3753 121.867L55.2426 115.464L65.726 111.647L68.281 119.271Z" fill="black"/>
<path d="M55.8134 114.377L59.2288 112.447L61.2482 123.052L58.2366 122.827L55.8134 114.377Z" fill="#B93160"/>
<path opacity="0.3" d="M55.8134 114.377L59.2288 112.447L61.2482 123.052L58.2366 122.827L55.8134 114.377Z" fill="white"/>
<path opacity="0.1" d="M41.3351 89.799C41.3351 89.799 96.0521 81.6721 93.3303 92.071C91.2494 100.009 68.6409 109.555 68.6409 109.555C47.5689 99.0215 30.2108 99.4166 30.2108 99.4166L41.3351 89.799Z" fill="black"/>
<path d="M7.71649 66.3074C9.15641 57.2825 11.5885 44.7105 14.6439 39.3225C15.1103 38.3701 15.8088 37.5566 16.6721 36.9608C16.6721 36.9608 17.9013 36.853 20.026 36.853H20.1841C27.6016 36.9245 34.9618 38.1912 41.9936 40.6067C44.436 41.4427 46.8232 42.4386 49.1405 43.588C49.1405 43.588 46.1114 62.3472 42.6785 66.038C39.2455 69.7288 34.7765 79.1937 34.7765 79.1937L6.26779 76.4997C6.26779 76.4997 6.77703 72.1444 7.71649 66.3074Z" fill="#263238"/>
<path d="M39.6845 34.9762C40.1699 33.8021 40.7362 32.6648 41.379 31.5728L33.7755 26.6697C33.8194 27.3844 33.8194 28.1012 33.7755 28.8159C33.6087 31.5099 32.6868 36.1436 28.6217 37.7959C28.6217 37.7959 30.3777 44.6836 35.9793 45.2673C36.2711 45.3011 36.5656 45.3011 36.8573 45.2673C37.3254 45.1918 37.7745 45.0228 38.1787 44.7698C38.583 44.5169 38.9345 44.185 39.2134 43.7931C39.4922 43.4011 39.6928 42.9569 39.8038 42.4856C39.9148 42.0144 39.9339 41.5255 39.8601 41.0467C39.8601 41.0467 38.8504 40.5887 38.7977 38.7927C38.8363 37.472 39.138 36.1734 39.6845 34.9762Z" fill="#EEC1BB"/>
<path opacity="0.2" d="M32.8624 26.9211C32.9852 27.6241 33.0556 28.3356 33.0731 29.0494V29.1033C33.0731 29.1033 34.7677 38.7658 39.0435 38.4245C38.9456 37.1179 39.1069 35.8044 39.5177 34.5631C39.8887 33.336 40.3405 32.1359 40.8698 30.9711L32.8624 26.9211Z" fill="black"/>
<path d="M38.9733 37.706C47.5075 41.2351 51.6867 36.3949 53.8993 26.5169C55.6553 18.5966 54.5051 13.8282 47.1475 11.5383C34.9345 7.76669 27.3047 30.9979 38.9733 37.706Z" fill="#EEC1BB"/>
<path d="M48.043 30.971C48.3932 31.1434 48.7836 31.2121 49.17 31.1692C49.5564 31.1264 49.9234 30.9737 50.2293 30.7285C49.6832 29.5185 49.2794 28.2464 49.0264 26.939L48.043 30.971Z" fill="#D58745"/>
<path d="M44.8032 24.1732C44.9525 23.6254 45.3212 23.2752 45.6812 23.2752L47.1475 23.1226C46.8843 23.3823 46.545 23.5463 46.1817 23.5895C46.2673 23.7468 46.3208 23.9202 46.3389 24.0993C46.357 24.2784 46.3394 24.4593 46.287 24.6312C46.1114 25.2508 45.6461 25.6639 45.2422 25.5292C44.8383 25.3945 44.6276 24.8287 44.8032 24.1732Z" fill="#263238"/>
<path d="M51.5199 26.2116C51.6692 25.6638 52.0555 25.3136 52.3979 25.3136L53.8203 25.1609C53.5555 25.4168 53.2165 25.5776 52.8545 25.6189C52.9404 25.7778 52.9933 25.9531 53.0099 26.1339C53.0265 26.3147 53.0065 26.497 52.9511 26.6695C52.7842 27.2891 52.3189 27.7022 51.915 27.5675C51.5111 27.4328 51.3531 26.8312 51.5199 26.2116Z" fill="#263238"/>
<path d="M44.452 20.195C44.4497 20.1525 44.4555 20.11 44.4692 20.0698C44.483 20.0297 44.5043 19.9927 44.532 19.961C44.5598 19.9293 44.5934 19.9035 44.6308 19.8851C44.6683 19.8667 44.709 19.8561 44.7505 19.8538C45.4158 19.8614 46.0702 20.0277 46.6616 20.3395C47.253 20.6513 47.7651 21.1 48.1572 21.6498C48.2061 21.72 48.2257 21.8073 48.2117 21.8923C48.1977 21.9774 48.1513 22.0532 48.0826 22.1033C48.0139 22.1533 47.9286 22.1733 47.8454 22.159C47.7623 22.1447 47.6881 22.0972 47.6392 22.0269C47.3074 21.5669 46.8786 21.1892 46.3847 20.9218C45.8907 20.6544 45.3442 20.5042 44.7857 20.4824C44.7241 20.4858 44.6629 20.4701 44.6101 20.4375C44.5655 20.4144 44.5276 20.38 44.4999 20.3375C44.4722 20.295 44.4557 20.2459 44.452 20.195Z" fill="#263238"/>
<path d="M54.6105 23.6524C54.2101 23.3597 53.7483 23.1667 53.2621 23.0887C52.7758 23.0108 52.2785 23.0501 51.8097 23.2034C51.7301 23.2318 51.6432 23.2291 51.5654 23.196C51.4877 23.1628 51.4246 23.1015 51.3882 23.0238C51.3556 22.9439 51.3548 22.8542 51.386 22.7736C51.4172 22.6931 51.4778 22.6283 51.555 22.5928C52.118 22.406 52.7153 22.3535 53.3012 22.4391C53.887 22.5247 54.446 22.7462 54.9353 23.0867C54.9701 23.1078 55.0003 23.1359 55.0242 23.1693C55.048 23.2027 55.0649 23.2407 55.074 23.281C55.083 23.3214 55.0839 23.3631 55.0767 23.4038C55.0695 23.4445 55.0543 23.4833 55.0319 23.5177C54.9957 23.5832 54.9358 23.6316 54.8651 23.6524C54.8249 23.67 54.7815 23.679 54.7378 23.679C54.694 23.679 54.6507 23.67 54.6105 23.6524Z" fill="#263238"/>
<path d="M33.6614 30.6118C28.8149 22.9339 34.3989 3.99505 46.9543 8.24259C59.5097 12.4901 54.0749 25.4752 54.0749 25.4752C56.2611 16.603 52.6438 15.2739 48.4206 14.1245C47.0137 13.7356 45.5201 13.839 44.1774 14.4183C42.8346 14.9975 41.7198 16.0194 41.0103 17.3214C39.7398 19.4765 37.7047 21.0464 35.3296 21.7036C32.0547 24.9095 33.6965 30.6118 33.6614 30.6118Z" fill="#263238"/>
<path d="M46.0324 32.9107C45.4434 32.9154 44.8724 32.7028 44.4241 32.3119C43.9758 31.9211 43.6803 31.378 43.5916 30.7824C43.5879 30.7569 43.5893 30.7309 43.5959 30.7061C43.6024 30.6812 43.6138 30.6579 43.6294 30.6377C43.645 30.6175 43.6646 30.6008 43.6867 30.5887C43.7089 30.5765 43.7333 30.5691 43.7584 30.5669C43.8083 30.5618 43.8582 30.5767 43.8975 30.6086C43.9369 30.6404 43.9625 30.6866 43.9691 30.7375C44.0362 31.2459 44.2851 31.7109 44.6678 32.0426C45.0505 32.3744 45.5398 32.5492 46.0412 32.5335C46.0813 32.541 46.1184 32.5603 46.148 32.589C46.1777 32.6177 46.1985 32.6546 46.208 32.6952C46.2156 32.7487 46.2024 32.8031 46.1712 32.8467C46.14 32.8904 46.0933 32.9198 46.0412 32.9286L46.0324 32.9107Z" fill="#2E353A"/>
<path d="M45.3739 56.4203C45.3739 56.4203 47.8762 73.5631 49.5532 76.8588C51.2302 80.1544 61.7662 91.2268 61.7662 91.2268L64.5758 89.7361C64.5758 89.7361 54.6719 77.0743 53.9695 74.7036C53.2671 72.3328 51.0985 52.4421 51.0985 52.4421L45.3739 56.4203Z" fill="#EEC1BB"/>
<path d="M43.6706 55.0015L44.9613 47.5392L49.123 43.5969C52.2311 45.2852 52.8018 55.1273 52.9335 59.1323C53.0477 62.6076 53.1267 70.5818 54.4612 74.084C55.9714 78.0352 64.1192 87.8953 64.1192 87.8953L60.2824 90.697C60.2824 90.697 50.6244 82.3905 47.8938 75.9968C45.1632 69.603 43.6706 55.0015 43.6706 55.0015Z" fill="#263238"/>
<path d="M50.8878 124.201C50.908 124.174 50.935 124.153 50.9659 124.141C50.9968 124.128 51.0305 124.124 51.0634 124.13C51.0965 124.133 51.1281 124.145 51.1546 124.166C51.181 124.186 51.2011 124.214 51.2126 124.246C51.2126 124.327 52.1345 127.075 51.5902 128.18C51.4804 128.377 51.3016 128.525 51.0897 128.593C50.9715 128.645 50.8407 128.66 50.7141 128.636C50.5875 128.612 50.4707 128.55 50.3785 128.458C50.0868 127.777 50.0462 127.012 50.2644 126.303C50.4106 125.585 50.6193 124.881 50.8878 124.201ZM51.3882 127.668C51.433 126.69 51.299 125.712 50.9931 124.785C50.5805 126.051 50.2468 127.802 50.6244 128.224C50.6683 128.287 50.7648 128.359 50.9756 128.269C51.042 128.248 51.1031 128.212 51.1547 128.164C51.2062 128.116 51.247 128.057 51.2741 127.991C51.3184 127.89 51.3536 127.784 51.3795 127.677L51.3882 127.668Z" fill="#B93160"/>
<path d="M50.9141 124.166C50.9335 124.14 50.9591 124.12 50.9883 124.107C51.0175 124.095 51.0494 124.09 51.0809 124.094C51.16 124.094 52.9599 124.686 53.4954 125.719C53.6466 126.015 53.6782 126.36 53.5832 126.68C53.4515 127.12 53.1969 127.228 53.0038 127.201C52.2399 127.201 51.0985 125.216 50.9053 124.3V124.237C50.9035 124.213 50.9065 124.189 50.9141 124.166ZM53.2935 126.491C53.3357 126.284 53.3046 126.067 53.2057 125.881C52.7176 125.24 52.0498 124.767 51.2916 124.525C51.6165 125.423 52.5647 126.824 53.0476 126.878C53.1003 126.878 53.2145 126.878 53.3023 126.581V126.491H53.2935Z" fill="#B93160"/>
<path d="M51.0985 125.198C48.7103 126.994 46.9894 127.174 45.1895 132.589C44.7944 133.747 41.739 132.589 42.336 129.76C43.337 125.046 43.6004 126.168 44.3993 122.136C45.1105 118.742 45.4442 116.281 45.9358 113.533L46.0324 113.309C46.084 113.183 46.1598 113.068 46.2553 112.972C46.3508 112.877 46.4641 112.801 46.5885 112.751C46.7129 112.701 46.8459 112.677 46.9796 112.68C47.1133 112.683 47.245 112.714 47.367 112.77L53.153 115.41C53.2784 115.468 53.3807 115.569 53.443 115.694C53.5052 115.82 53.5237 115.964 53.4954 116.102L52.0028 123.69C51.8924 124.289 51.5706 124.826 51.0985 125.198Z" fill="#263238"/>
<path d="M74.3743 115.895L86.0165 119.523L90.7928 121.005L89.2476 126.572L83.9796 125.683L73.0046 123.842L74.3743 115.895Z" fill="#EEC1BB"/>
<path opacity="0.2" d="M74.3743 115.895L86.0165 119.523L83.9796 125.683L73.0046 123.842L74.3743 115.895Z" fill="black"/>
<path d="M82.3904 125.459C57.7625 123.286 29.605 113.991 29.605 113.991C29.605 113.991 25.0746 109.447 23.9156 112.707C22.7567 115.967 30.7728 127.542 30.7728 127.542C30.7728 127.542 19.0076 125.387 12.6333 116.703C6.25904 108.02 8.5155 94.0826 23.9332 93.3552C39.3509 92.6278 84.1289 118.356 84.1289 118.356L82.3904 125.459Z" fill="#B93160"/>
<path d="M82.9699 126.132H79.0628L82.3202 115.913L84.8488 117.655L82.9699 126.132Z" fill="#B93160"/>
<path opacity="0.3" d="M82.9699 126.132H79.0628L82.3202 115.913L84.8488 117.655L82.9699 126.132Z" fill="white"/>
<path d="M91.8992 119.46C91.875 119.483 91.8455 119.499 91.8136 119.507C91.7817 119.515 91.7483 119.514 91.7167 119.505C91.6851 119.496 91.6562 119.479 91.6328 119.455C91.6094 119.432 91.5923 119.402 91.5831 119.37C91.5831 119.28 91.109 116.425 91.8201 115.428C91.9606 115.251 92.1614 115.136 92.382 115.105C92.5054 115.069 92.6366 115.073 92.7575 115.117C92.8785 115.16 92.9835 115.241 93.0581 115.347C93.242 116.066 93.164 116.829 92.8386 117.493C92.5843 118.177 92.2699 118.835 91.8992 119.46ZM91.8992 115.958C91.699 116.915 91.6781 117.902 91.8377 118.867C92.4435 117.691 93.0493 116.012 92.7157 115.545C92.7157 115.473 92.6016 115.383 92.3645 115.437C92.2973 115.45 92.2335 115.478 92.1775 115.518C92.1215 115.558 92.0745 115.61 92.0396 115.67C91.978 115.759 91.9278 115.856 91.8904 115.958H91.8992Z" fill="#B93160"/>
<path d="M91.864 119.505C91.838 119.518 91.8095 119.524 91.7806 119.524C91.7517 119.524 91.7232 119.518 91.6972 119.505C91.6182 119.46 89.9412 118.607 89.5637 117.511C89.5102 117.355 89.4881 117.19 89.4987 117.025C89.5092 116.859 89.5522 116.698 89.6251 116.551C89.8183 116.129 90.0817 116.075 90.2748 116.12C91.0211 116.272 91.8465 118.4 91.8991 119.334V119.397L91.864 119.505ZM89.8798 116.811C89.8079 117.011 89.8079 117.231 89.8798 117.431C90.2625 118.14 90.8475 118.713 91.5567 119.074C91.3811 118.104 90.6787 116.595 90.2046 116.47C90.1519 116.47 90.0378 116.47 89.9149 116.721V116.811H89.8798Z" fill="#B93160"/>
<path d="M91.8728 118.454C94.5068 117.107 96.2628 117.17 98.8529 112.123C99.4324 111.037 102.268 112.662 101.232 115.374C99.4763 119.864 99.4324 118.724 98.0188 122.558C96.7896 125.791 96.0784 128.162 95.1653 130.802L95.0336 130.999C94.963 131.115 94.8706 131.215 94.7619 131.293C94.6531 131.372 94.5301 131.427 94.4001 131.456C94.2701 131.486 94.1357 131.488 94.0048 131.464C93.8739 131.439 93.749 131.388 93.6376 131.314L88.3696 127.722C88.2553 127.644 88.1698 127.529 88.1268 127.395C88.0839 127.262 88.0859 127.117 88.1325 126.985L90.7665 119.729C90.9762 119.184 91.3682 118.732 91.8728 118.454Z" fill="#263238"/>
<path opacity="0.2" d="M15.1005 77.3347C14.3576 76.1241 13.6947 74.8641 13.1162 73.5631C11.2021 69.3694 10.5963 59.1951 10.412 52.1368C11.0565 49.2265 11.8567 46.3546 12.8089 43.534L17.7959 41.2351L20.1402 45.2851L21.5889 48.4371C21.5889 48.4371 23.1078 67.4118 26.8569 71.839C29.3065 74.6946 31.7561 77.4515 33.1873 79.023L15.1005 77.3347Z" fill="black"/>
<path d="M40.6942 90.4814C40.6942 90.4814 24.1088 74.5868 22.5284 70.2854C20.948 65.984 20.0173 46.7937 20.0173 46.7937L12.4665 50.5024C12.4665 50.5024 16.9531 73.8505 18.3491 76.1044C20.2368 79.2115 37.3929 92.2056 37.3929 92.2056L40.6942 90.4814Z" fill="#EEC1BB"/>
<path d="M16.6633 36.9697C22.5284 35.497 21.466 49.9638 21.6504 54.6155C21.7996 58.2613 22.5284 66.496 24.1702 70.1239C26.5847 75.4041 38.7187 87.9492 38.7187 87.9492L35.6369 91.4694C35.6369 91.4694 19.6134 79.966 17.0058 75.8801C14.9249 72.6293 5.11763 39.8703 16.6633 36.9697Z" fill="#263238"/>
<path opacity="0.2" d="M47.3933 52.5679C47.3933 56.3125 47.3933 65.4182 46.1729 70.5728C45.532 67.8788 45.0139 64.9872 44.6188 62.401C45.7665 59.1934 46.6936 55.9077 47.3933 52.5679Z" fill="black"/>
<path d="M36.0583 20.6082C36.0583 20.6082 39.2104 21.9282 36.8134 25.5382C37.0363 24.7086 37.0843 23.8401 36.9541 22.9902C36.8239 22.1402 36.5186 21.3283 36.0583 20.6082Z" fill="#263238"/>
<path d="M35.874 49.6135C35.874 49.6135 46.208 40.7413 42.5907 39.2237C38.9733 37.706 34.1092 45.797 35.874 49.6135Z" fill="#263238"/>
<path opacity="0.2" d="M25.7858 40.4898L23.1518 36.9517C24.82 37.0415 26.4852 37.1911 28.1476 37.4007L31.2733 41.2351L33.758 45.2851L35.0311 46.7937V48.7873C35.0311 48.7873 28.7797 44.5308 25.7858 40.4898Z" fill="black"/>
<path d="M35.8828 50.1613C35.8828 50.1613 35.9266 35.8561 26.813 33.9434C17.6994 32.0307 36.2164 48.8771 35.8828 50.1613Z" fill="#263238"/>
<path d="M54.6105 18.857V18.7043C55.9275 18.6235 58.7722 18.7851 58.4912 21.6497C58.1225 25.3585 55.269 30.1448 57.104 32.2372C57.104 32.2372 54.2768 31.0967 56.226 22.9608C56.9723 19.9166 55.5324 19.0815 54.6105 18.857Z" fill="#263238"/>
<path d="M33.9423 26.4811C28.6129 23.5626 31.1328 19.1175 33.4858 19.5755C33.9177 19.6713 34.327 19.8533 34.6901 20.111C35.0533 20.3687 35.3631 20.6972 35.6021 21.0775C35.841 21.4578 36.0043 21.8826 36.0826 22.3275C36.1609 22.7724 36.1526 23.2287 36.0583 23.6704C35.4086 26.2297 34.7062 26.9032 33.9423 26.4811Z" fill="#EEC1BB"/>
<path d="M42.4765 24.6672L34.794 20.1772L35.0398 19.4229L42.7838 23.9129L47.7182 25.7537L50.2995 26.6517L54.5402 28.0616L54.2768 29.3637C54.0924 30.3156 53.3549 30.8813 52.6438 30.6299L51.0019 30.0462C50.6219 29.8502 50.3199 29.5259 50.1471 29.1282C49.9742 28.7304 49.9412 28.2838 50.0537 27.864L50.1327 27.451L47.5865 26.6248L47.5075 27.0469C47.3143 27.9898 46.5856 28.5555 45.8656 28.3041L43.3457 27.4061C42.9669 27.2088 42.6659 26.8843 42.4932 26.487C42.3206 26.0897 42.2868 25.6437 42.3975 25.2239L42.4765 24.6672Z" fill="#263238"/>
<g opacity="0.4">
<path d="M47.1475 27.7651C47.0134 27.9837 46.8124 28.1508 46.5757 28.2401C46.339 28.3295 46.08 28.3361 45.8393 28.259L43.3194 27.361C43.1027 27.2662 42.9106 27.121 42.7582 26.9371C42.6058 26.7532 42.4973 26.5356 42.4414 26.3014C44.1251 26.2445 45.7798 26.7592 47.1475 27.7651Z" fill="black"/>
<path d="M53.9608 30.1538C53.828 30.3769 53.6269 30.5489 53.3888 30.6431C53.1506 30.7373 52.8887 30.7484 52.6438 30.6747L51.0019 30.091C50.7547 29.9814 50.5388 29.8094 50.3744 29.5911C50.2101 29.3727 50.1027 29.1152 50.0624 28.8428C51.4556 28.9015 52.8054 29.3554 53.9608 30.1538Z" fill="black"/>
</g>
<path d="M64.8216 88.9281L70.9676 88.1917C71.1219 88.1715 71.2787 88.1904 71.4242 88.2468C71.5696 88.3031 71.6993 88.3953 71.8017 88.515L74.9801 92.1788C75.0748 92.2875 75.1446 92.4163 75.1844 92.556C75.2243 92.6957 75.2331 92.8427 75.2104 92.9863C75.1877 93.13 75.134 93.2667 75.0531 93.3864C74.9723 93.5061 74.8663 93.6059 74.743 93.6785L73.8211 94.2263C73.7081 94.2937 73.5827 94.3365 73.4528 94.3519C73.3228 94.3674 73.1911 94.3552 73.066 94.3161L67.6137 92.6548H67.4995L62.135 91.7568C61.9965 91.7326 61.865 91.6776 61.7497 91.5957C61.6344 91.5137 61.5382 91.4068 61.4678 91.2825C61.3974 91.1583 61.3546 91.0197 61.3424 90.8766C61.3303 90.7335 61.3491 90.5895 61.3974 90.4547C61.4491 90.3121 61.5321 90.1836 61.6403 90.0792C61.7484 89.9749 61.8786 89.8975 62.0208 89.853L64.6548 89.0268L64.8216 88.9281Z" fill="#EEC1BB"/>
<path d="M40.2113 89.8619L46.3573 89.1255C46.5115 89.1068 46.6678 89.1265 46.813 89.1827C46.9582 89.239 47.088 89.3303 47.1914 89.4488L50.361 93.1126C50.456 93.2206 50.5263 93.349 50.5668 93.4883C50.6074 93.6275 50.617 93.7743 50.5952 93.9179C50.5733 94.0615 50.5205 94.1983 50.4405 94.3184C50.3605 94.4385 50.2553 94.5389 50.1327 94.6123L49.2108 95.1601C48.9789 95.2949 48.7043 95.3304 48.4469 95.2588L42.9945 93.5886H42.8804L37.5246 92.6906C37.3854 92.6676 37.2529 92.6134 37.1366 92.5319C37.0202 92.4504 36.9229 92.3437 36.8516 92.2193C36.7803 92.0949 36.7368 91.9559 36.7241 91.8123C36.7114 91.6686 36.7299 91.5239 36.7783 91.3884C36.8299 91.2459 36.913 91.1174 37.0212 91.013C37.1293 90.9087 37.2595 90.8313 37.4017 90.7868L40.0357 89.9606L40.2113 89.8619Z" fill="#EEC1BB"/>
<path d="M56.4631 96.4622H71.6086V93.9747H56.4631V96.4622Z" fill="#263238"/>
<path d="M57.7098 96.4531H38.4992C38.1825 96.4531 37.8788 96.3244 37.6548 96.0954C37.4309 95.8664 37.3051 95.5558 37.3051 95.2319V93.9657H57.7098V96.4531Z" fill="#263238"/>
<path opacity="0.3" d="M57.7098 96.4531H38.4992C38.1825 96.4531 37.8788 96.3244 37.6548 96.0954C37.4309 95.8664 37.3051 95.5558 37.3051 95.2319V93.9657H57.7098V96.4531Z" fill="white"/>
<path d="M52.2223 95.6541H54.6544V94.774H52.2223V95.6541Z" fill="#263238"/>
<path d="M48.4293 95.6541H50.8614V94.774H48.4293V95.6541Z" fill="#263238"/>
<path d="M60.6072 93.9747H58.9917L65.3133 71.4888H66.9288L60.6072 93.9747Z" fill="#263238"/>
<path opacity="0.3" d="M60.6072 93.9747H58.9917L65.3133 71.4888H66.9288L60.6072 93.9747Z" fill="white"/>
<path d="M60.0102 93.9747H88.431L94.7527 71.4888H66.3318L60.0102 93.9747Z" fill="#263238"/>
<path opacity="0.6" d="M60.0102 93.9747H88.431L94.7527 71.4888H66.3318L60.0102 93.9747Z" fill="white"/>
<path d="M58.6142 93.9749H88.2028C88.7032 93.9749 89.0808 94.5316 89.0808 95.2231C89.0808 95.9145 88.6769 96.4623 88.2028 96.4623H58.6142C58.1137 96.4623 57.7362 95.9056 57.7362 95.2231C57.7362 94.5406 58.1225 93.9749 58.6142 93.9749Z" fill="#263238"/>
<path opacity="0.5" d="M58.6142 93.9749H88.2028C88.7032 93.9749 89.0808 94.5316 89.0808 95.2231C89.0808 95.9145 88.6769 96.4623 88.2028 96.4623H58.6142C58.1137 96.4623 57.7362 95.9056 57.7362 95.2231C57.7362 94.5406 58.1225 93.9749 58.6142 93.9749Z" fill="white"/>
<path d="M58.6141 96.4533C59.1136 96.4533 59.5185 95.8985 59.5185 95.2141C59.5185 94.5297 59.1136 93.9749 58.6141 93.9749C58.1147 93.9749 57.7098 94.5297 57.7098 95.2141C57.7098 95.8985 58.1147 96.4533 58.6141 96.4533Z" fill="#263238"/>
<path opacity="0.3" d="M58.6141 96.4533C59.1136 96.4533 59.5185 95.8985 59.5185 95.2141C59.5185 94.5297 59.1136 93.9749 58.6141 93.9749C58.1147 93.9749 57.7098 94.5297 57.7098 95.2141C57.7098 95.8985 58.1147 96.4533 58.6141 96.4533Z" fill="white"/>
<path opacity="0.6" d="M76.5517 84.2675H80.4237L81.2841 81.1963H77.4121L76.5517 84.2675Z" fill="white"/>
</svg>
