<svg width="500" height="500" viewBox="0 0 500 500" fill="none" xmlns="http://www.w3.org/2000/svg">
<path d="M184.98 324.09H45.25C40.412 324.09 36.49 328.012 36.49 332.85V453.16C36.49 457.998 40.412 461.92 45.25 461.92H184.98C189.818 461.92 193.74 457.998 193.74 453.16V332.85C193.74 328.012 189.818 324.09 184.98 324.09Z" fill="#455A64"/>
<g opacity="0.3">
<path d="M36.49 414.47H93.77C94.8309 414.47 95.8483 414.049 96.5984 413.298C97.3486 412.548 97.77 411.531 97.77 410.47H36.65L36.49 414.47Z" fill="black"/>
</g>
<path d="M95.13 375.21H37.27C34.5141 375.21 32.28 377.444 32.28 380.2V405.99C32.28 408.746 34.5141 410.98 37.27 410.98H95.13C97.8859 410.98 100.12 408.746 100.12 405.99V380.2C100.12 377.444 97.8859 375.21 95.13 375.21Z" fill="#455A64"/>
<path d="M95.13 411C95.7972 410.959 96.4529 410.807 97.07 410.55C97.8211 410.211 98.4822 409.701 99 409.06C99.6616 408.178 100.013 407.102 100 406C100 401 99.95 393.69 99.92 384.72C99.92 383.6 99.92 382.45 99.92 381.27C99.9355 380.686 99.9155 380.102 99.86 379.52C99.7818 378.94 99.5952 378.381 99.31 377.87C98.7221 376.81 97.7534 376.013 96.6 375.64C96.0037 375.462 95.3818 375.384 94.76 375.41H92.76H75.89H37.24C36.4352 375.417 35.6455 375.629 34.9455 376.026C34.2456 376.423 33.6585 376.993 33.24 377.68C32.8141 378.362 32.5793 379.146 32.56 379.95C32.56 380.77 32.56 381.63 32.56 382.46C32.56 385.793 32.56 389.08 32.56 392.32V401.84C32.56 403.38 32.56 404.96 32.56 406.43C32.6268 407.152 32.858 407.849 33.2359 408.468C33.6137 409.087 34.1283 409.611 34.74 410C35.3476 410.375 36.0306 410.61 36.74 410.69C37.42 410.76 38.18 410.69 38.9 410.69H51.34H66.04L87.32 410.78H93.11H94.61H95.13C95.13 410.78 94.95 410.78 94.61 410.78H93.11L87.32 410.83L66 411.16H51.3H43.11H38.87C38.13 411.16 37.44 411.16 36.66 411.16C35.8874 411.072 35.1452 410.809 34.49 410.39C33.818 409.971 33.25 409.406 32.829 408.735C32.408 408.065 32.145 407.307 32.06 406.52C32 404.95 32.06 403.45 32.06 401.88C32.06 398.77 32.06 395.59 32.06 392.36V382.5C32.06 381.66 32.06 380.83 32.06 379.97C32.0873 379.079 32.3457 378.211 32.81 377.45C33.2861 376.698 33.9448 376.079 34.7247 375.651C35.5046 375.223 36.3802 374.999 37.27 375H75.92H92.79H94.79C95.466 374.97 96.1422 375.054 96.79 375.25C98.0441 375.661 99.0951 376.533 99.73 377.69C100.032 378.242 100.228 378.846 100.31 379.47C100.369 380.071 100.389 380.676 100.37 381.28C100.37 382.46 100.37 383.61 100.37 384.73C100.37 393.73 100.3 400.97 100.28 406.02C100.285 407.275 99.8173 408.486 98.9707 409.412C98.1241 410.338 96.9602 410.912 95.71 411.02L95.13 411Z" fill="#263238"/>
<g opacity="0.3">
<path d="M83.39 407.01C88.9349 407.01 93.43 402.515 93.43 396.97C93.43 391.425 88.9349 386.93 83.39 386.93C77.845 386.93 73.35 391.425 73.35 396.97C73.35 402.515 77.845 407.01 83.39 407.01Z" fill="black"/>
</g>
<path d="M90.4903 400.569C94.4112 396.648 94.4112 390.291 90.4903 386.37C86.5695 382.449 80.2125 382.449 76.2916 386.37C72.3707 390.291 72.3708 396.648 76.2916 400.569C80.2125 404.49 86.5695 404.49 90.4903 400.569Z" fill="#EBEBEB"/>
<path d="M93.4401 393.47C93.3701 393.47 93.4401 392.58 93.0201 391.04C92.438 388.881 91.1494 386.98 89.3601 385.64C88.0474 384.65 86.5069 384.005 84.88 383.766C83.2532 383.526 81.5924 383.7 80.0501 384.27C79.1639 384.585 78.331 385.034 77.5801 385.6C76.7816 386.18 76.0826 386.886 75.5101 387.69C74.2763 389.366 73.6108 391.393 73.6108 393.475C73.6108 395.557 74.2763 397.584 75.5101 399.26C76.657 400.819 78.2352 402.008 80.0501 402.68C81.3459 403.154 82.7263 403.353 84.1033 403.263C85.4803 403.174 86.8234 402.798 88.0469 402.16C89.2703 401.522 90.3472 400.636 91.2087 399.558C92.0702 398.48 92.6973 397.234 93.0501 395.9C93.2311 395.098 93.3713 394.287 93.4701 393.47C93.5266 394.303 93.4524 395.14 93.2501 395.95C92.7296 398.199 91.4426 400.196 89.6101 401.6C88.354 402.58 86.8839 403.248 85.3201 403.55C83.5148 403.895 81.6502 403.75 79.9201 403.13C78.984 402.803 78.1037 402.334 77.3101 401.74C76.4729 401.133 75.7371 400.397 75.1301 399.56C73.8254 397.799 73.1211 395.666 73.1211 393.475C73.1211 391.284 73.8254 389.151 75.1301 387.39C75.7344 386.551 76.4706 385.814 77.3101 385.21C78.1033 384.613 78.9836 384.14 79.9201 383.81C81.6512 383.194 83.5157 383.052 85.3201 383.4C87.2342 383.767 89.0014 384.679 90.4085 386.028C91.8156 387.376 92.8024 389.103 93.2501 391C93.4413 391.808 93.5054 392.642 93.4401 393.47Z" fill="#263238"/>
</svg>
